%TF.GenerationSoftware,KiCad,Pcbnew,(7.0.0)*%
%TF.CreationDate,2023-03-26T22:08:02+02:00*%
%TF.ProjectId,PogoProbe 2030,506f676f-5072-46f6-9265-20323033302e,rev?*%
%TF.SameCoordinates,Original*%
%TF.FileFunction,Profile,NP*%
%FSLAX46Y46*%
G04 Gerber Fmt 4.6, Leading zero omitted, Abs format (unit mm)*
G04 Created by KiCad (PCBNEW (7.0.0)) date 2023-03-26 22:08:02*
%MOMM*%
%LPD*%
G01*
G04 APERTURE LIST*
%TA.AperFunction,Profile*%
%ADD10C,0.050000*%
%TD*%
G04 APERTURE END LIST*
D10*
X186000000Y-81999998D02*
X186000000Y-84999998D01*
X176000000Y-97499999D02*
G75*
G03*
X176500000Y-97999998I500000J1D01*
G01*
X175000000Y-80999998D02*
X176500000Y-80999998D01*
X186000000Y-93499998D02*
X186000000Y-91499998D01*
X176500000Y-82999998D02*
X178000000Y-82999998D01*
X183500000Y-97999998D02*
X182000000Y-97999999D01*
X176500000Y-92999998D02*
G75*
G03*
X176000000Y-93499999I0J-500000D01*
G01*
X185000000Y-80999998D02*
X183500000Y-80999998D01*
X176000000Y-90499998D02*
G75*
G03*
X176500000Y-90999998I500001J1D01*
G01*
X175000000Y-106999998D02*
X178000000Y-106999999D01*
X186000000Y-104499998D02*
G75*
G03*
X184000000Y-104499998I-1000000J0D01*
G01*
X174000000Y-93499999D02*
X174000000Y-88999999D01*
X184000002Y-100499998D02*
G75*
G03*
X183500000Y-99999998I-500002J-2D01*
G01*
X174000000Y-105999998D02*
X174000000Y-104499999D01*
X175000000Y-80999998D02*
G75*
G03*
X174000000Y-81999998I-1J-999999D01*
G01*
X186000002Y-81999998D02*
G75*
G03*
X185000000Y-80999998I-1000002J-2D01*
G01*
X182000000Y-80999998D02*
X183500000Y-80999998D01*
X183500000Y-99999998D02*
X182000000Y-99999999D01*
X176000000Y-104499999D02*
G75*
G03*
X176500000Y-104999998I500000J1D01*
G01*
X186000000Y-91499998D02*
X186000000Y-88999998D01*
X174000000Y-84999999D02*
X174000000Y-81999998D01*
X183500000Y-90999998D02*
X182000000Y-90999999D01*
X176500000Y-99999998D02*
X178000000Y-99999999D01*
X174000000Y-100499999D02*
X174000000Y-97499999D01*
X176500000Y-80999998D02*
X178000000Y-80999998D01*
X176500000Y-82999998D02*
G75*
G03*
X176000000Y-83499998I1J-500001D01*
G01*
X182000000Y-106999999D02*
X185000000Y-106999998D01*
X183500000Y-98000000D02*
G75*
G03*
X184000000Y-97499998I0J500000D01*
G01*
X182000000Y-104999999D02*
X183500000Y-104999998D01*
X183500000Y-92999998D02*
X182000000Y-92999999D01*
X182000000Y-82999998D02*
X183500000Y-82999998D01*
X178000000Y-90999999D02*
X176500000Y-90999998D01*
X185000000Y-107000000D02*
G75*
G03*
X186000000Y-105999998I0J1000000D01*
G01*
X176500000Y-104999998D02*
X178000000Y-104999999D01*
X176500000Y-97999998D02*
X178000000Y-97999999D01*
X184000000Y-84999998D02*
X184000000Y-83499998D01*
X186000000Y-100499998D02*
X186000000Y-97499998D01*
X183500000Y-105000000D02*
G75*
G03*
X184000000Y-104499998I0J500000D01*
G01*
X184000002Y-93499998D02*
G75*
G03*
X183500000Y-92999998I-500002J-2D01*
G01*
X186000000Y-97499998D02*
G75*
G03*
X184000000Y-97499998I-1000000J0D01*
G01*
X176000000Y-90499998D02*
X176000000Y-88999999D01*
X176500000Y-92999998D02*
X178000000Y-92999999D01*
X184000002Y-83499998D02*
G75*
G03*
X183500000Y-82999998I-500002J-2D01*
G01*
X174000000Y-105999998D02*
G75*
G03*
X175000000Y-106999998I999999J-1D01*
G01*
X186000000Y-105999998D02*
X186000000Y-104499998D01*
X184000000Y-93499998D02*
G75*
G03*
X186000000Y-93499998I1000000J0D01*
G01*
X176000000Y-84999999D02*
X176000000Y-83499998D01*
X184000000Y-88999998D02*
X184000000Y-90499998D01*
X184000000Y-84999998D02*
G75*
G03*
X186000000Y-84999998I1000000J0D01*
G01*
X176500000Y-99999998D02*
G75*
G03*
X176000000Y-100499999I0J-500000D01*
G01*
X183500000Y-91000000D02*
G75*
G03*
X184000000Y-90499998I0J500000D01*
G01*
X186000001Y-112999999D02*
G75*
G03*
X185000000Y-111999999I-1000001J-1D01*
G01*
X178000000Y-82999998D02*
G75*
G03*
X178000000Y-80999998I0J1000000D01*
G01*
X178000000Y-92999999D02*
G75*
G03*
X178000000Y-90999999I0J1000000D01*
G01*
X174000000Y-100499999D02*
G75*
G03*
X176000000Y-100499999I1000000J0D01*
G01*
X174000000Y-116000000D02*
X174000000Y-112999999D01*
X176000000Y-104499999D02*
G75*
G03*
X174000000Y-104499999I-1000000J0D01*
G01*
X176000000Y-88999999D02*
G75*
G03*
X174000000Y-88999999I-1000000J0D01*
G01*
X178000000Y-99999999D02*
G75*
G03*
X178000000Y-97999999I0J1000000D01*
G01*
X176000000Y-97499999D02*
G75*
G03*
X174000000Y-97499999I-1000000J0D01*
G01*
X186000000Y-112999999D02*
X186000000Y-115999999D01*
X175000000Y-111999999D02*
X176500000Y-111999999D01*
X178000000Y-106999999D02*
G75*
G03*
X178000000Y-104999999I0J1000000D01*
G01*
X182000000Y-104999999D02*
G75*
G03*
X182000000Y-106999999I0J-1000000D01*
G01*
X175000000Y-111999999D02*
G75*
G03*
X174000000Y-112999999I-1J-999999D01*
G01*
X174000000Y-93499999D02*
G75*
G03*
X176000000Y-93499999I1000000J0D01*
G01*
X182000000Y-80999998D02*
G75*
G03*
X182000000Y-82999998I1J-1000000D01*
G01*
X182000000Y-90999999D02*
G75*
G03*
X182000000Y-92999999I0J-1000000D01*
G01*
X186000000Y-88999998D02*
G75*
G03*
X184000000Y-88999998I-1000000J0D01*
G01*
X184000000Y-100499998D02*
G75*
G03*
X186000000Y-100499998I1000000J0D01*
G01*
X174000000Y-84999999D02*
G75*
G03*
X176000000Y-84999999I1000000J0D01*
G01*
X182000000Y-97999999D02*
G75*
G03*
X182000000Y-99999999I0J-1000000D01*
G01*
X185000000Y-111999999D02*
X183500000Y-111999999D01*
X174000000Y-53999999D02*
X174000000Y-50999998D01*
X186000000Y-73499998D02*
G75*
G03*
X184000000Y-73499998I-1000000J0D01*
G01*
X175000000Y-75999998D02*
X178000000Y-75999999D01*
X186000000Y-62499998D02*
X186000000Y-60499998D01*
X174000000Y-69499999D02*
X174000000Y-66499999D01*
X186000000Y-60499998D02*
X186000000Y-57999998D01*
X186000000Y-50999998D02*
X186000000Y-53999998D01*
X176500000Y-61999998D02*
G75*
G03*
X176000000Y-62499999I0J-500000D01*
G01*
X182000000Y-49999998D02*
X183500000Y-49999998D01*
X176000000Y-73499999D02*
G75*
G03*
X176500000Y-73999998I500000J1D01*
G01*
X183500000Y-68999998D02*
X182000000Y-68999999D01*
X183500000Y-66999998D02*
X182000000Y-66999999D01*
X186000002Y-50999998D02*
G75*
G03*
X185000000Y-49999998I-1000002J-2D01*
G01*
X176000000Y-59499998D02*
G75*
G03*
X176500000Y-59999998I500001J1D01*
G01*
X183500000Y-59999998D02*
X182000000Y-59999999D01*
X174000000Y-74999998D02*
X174000000Y-73499999D01*
X184000002Y-69499998D02*
G75*
G03*
X183500000Y-68999998I-500002J-2D01*
G01*
X176500000Y-68999998D02*
X178000000Y-68999999D01*
X185000000Y-49999998D02*
X183500000Y-49999998D01*
X175000000Y-49999998D02*
G75*
G03*
X174000000Y-50999998I-1J-999999D01*
G01*
X176500000Y-51999998D02*
X178000000Y-51999998D01*
X174000000Y-62499999D02*
X174000000Y-57999999D01*
X176000000Y-66499999D02*
G75*
G03*
X176500000Y-66999998I500000J1D01*
G01*
X175000000Y-49999998D02*
X176500000Y-49999998D01*
X176500000Y-61999998D02*
X178000000Y-61999999D01*
X176000000Y-53999999D02*
X176000000Y-52499998D01*
X178000000Y-51999998D02*
G75*
G03*
X178000000Y-49999998I0J1000000D01*
G01*
X176000000Y-66499999D02*
G75*
G03*
X174000000Y-66499999I-1000000J0D01*
G01*
X182000000Y-59999999D02*
G75*
G03*
X182000000Y-61999999I0J-1000000D01*
G01*
X176000000Y-59499998D02*
X176000000Y-57999999D01*
X182000000Y-73999999D02*
X183500000Y-73999998D01*
X178000000Y-68999999D02*
G75*
G03*
X178000000Y-66999999I0J1000000D01*
G01*
X182000000Y-51999998D02*
X183500000Y-51999998D01*
X174000000Y-53999999D02*
G75*
G03*
X176000000Y-53999999I1000000J0D01*
G01*
X176500000Y-73999998D02*
X178000000Y-73999999D01*
X176500000Y-66999998D02*
X178000000Y-66999999D01*
X184000002Y-52499998D02*
G75*
G03*
X183500000Y-51999998I-500002J-2D01*
G01*
X174000000Y-74999998D02*
G75*
G03*
X175000000Y-75999998I999999J-1D01*
G01*
X184000000Y-57999998D02*
X184000000Y-59499998D01*
X176500000Y-68999998D02*
G75*
G03*
X176000000Y-69499999I0J-500000D01*
G01*
X182000000Y-66999999D02*
G75*
G03*
X182000000Y-68999999I0J-1000000D01*
G01*
X178000000Y-61999999D02*
G75*
G03*
X178000000Y-59999999I0J1000000D01*
G01*
X176000000Y-57999999D02*
G75*
G03*
X174000000Y-57999999I-1000000J0D01*
G01*
X186000000Y-57999998D02*
G75*
G03*
X184000000Y-57999998I-1000000J0D01*
G01*
X178000000Y-59999999D02*
X176500000Y-59999998D01*
X185000000Y-76000000D02*
G75*
G03*
X186000000Y-74999998I0J1000000D01*
G01*
X184000000Y-53999998D02*
G75*
G03*
X186000000Y-53999998I1000000J0D01*
G01*
X174000000Y-62499999D02*
G75*
G03*
X176000000Y-62499999I1000000J0D01*
G01*
X178000000Y-75999999D02*
G75*
G03*
X178000000Y-73999999I0J1000000D01*
G01*
X184000000Y-53999998D02*
X184000000Y-52499998D01*
X184000000Y-62499998D02*
G75*
G03*
X186000000Y-62499998I1000000J0D01*
G01*
X176000000Y-73499999D02*
G75*
G03*
X174000000Y-73499999I-1000000J0D01*
G01*
X183500000Y-60000000D02*
G75*
G03*
X184000000Y-59499998I0J500000D01*
G01*
X184000000Y-69499998D02*
G75*
G03*
X186000000Y-69499998I1000000J0D01*
G01*
X182000000Y-73999999D02*
G75*
G03*
X182000000Y-75999999I0J-1000000D01*
G01*
X182000000Y-49999998D02*
G75*
G03*
X182000000Y-51999998I1J-1000000D01*
G01*
X186000000Y-74999998D02*
X186000000Y-73499998D01*
X176500000Y-49999998D02*
X178000000Y-49999998D01*
X184000002Y-62499998D02*
G75*
G03*
X183500000Y-61999998I-500002J-2D01*
G01*
X174000000Y-69499999D02*
G75*
G03*
X176000000Y-69499999I1000000J0D01*
G01*
X176500000Y-51999998D02*
G75*
G03*
X176000000Y-52499998I1J-500001D01*
G01*
X182000000Y-75999999D02*
X185000000Y-75999998D01*
X183500000Y-67000000D02*
G75*
G03*
X184000000Y-66499998I0J500000D01*
G01*
X183500000Y-61999998D02*
X182000000Y-61999999D01*
X186000000Y-69499998D02*
X186000000Y-66499998D01*
X183500000Y-74000000D02*
G75*
G03*
X184000000Y-73499998I0J500000D01*
G01*
X186000000Y-66499998D02*
G75*
G03*
X184000000Y-66499998I-1000000J0D01*
G01*
X186000000Y-124499999D02*
X186000000Y-122499999D01*
X183500000Y-122000000D02*
G75*
G03*
X184000000Y-121499999I0J500000D01*
G01*
X183500000Y-123999999D02*
X182000000Y-124000000D01*
X184000001Y-124499999D02*
G75*
G03*
X183500000Y-123999999I-500001J-1D01*
G01*
X176500000Y-123999999D02*
X178000000Y-124000000D01*
X182000000Y-111999999D02*
X183500000Y-111999999D01*
X184000001Y-114499999D02*
G75*
G03*
X183500000Y-113999999I-500001J-1D01*
G01*
X176500000Y-113999999D02*
X178000000Y-113999999D01*
X176000000Y-121499999D02*
G75*
G03*
X176500000Y-121999999I500001J1D01*
G01*
X174000000Y-124500000D02*
X174000000Y-120000000D01*
X176500000Y-113999999D02*
G75*
G03*
X176000000Y-114499999I1J-500001D01*
G01*
X176000000Y-116000000D02*
X176000000Y-114499999D01*
X183500000Y-121999999D02*
X182000000Y-122000000D01*
X176500000Y-111999999D02*
X178000000Y-111999999D01*
X184000000Y-115999999D02*
X184000000Y-114499999D01*
X176000000Y-121499999D02*
X176000000Y-120000000D01*
X184000000Y-119999999D02*
X184000000Y-121499999D01*
X186000000Y-122499999D02*
X186000000Y-119999999D01*
X182000000Y-113999999D02*
X183500000Y-113999999D01*
X178000000Y-122000000D02*
X176500000Y-121999999D01*
X183500000Y-128999999D02*
X182000000Y-129000000D01*
X174000000Y-131500000D02*
X174000000Y-128500000D01*
X176500000Y-128999999D02*
X178000000Y-129000000D01*
X176500000Y-130999999D02*
G75*
G03*
X176000000Y-131500000I0J-500000D01*
G01*
X176000000Y-128500000D02*
G75*
G03*
X176500000Y-128999999I500000J1D01*
G01*
X183500000Y-130999999D02*
X182000000Y-131000000D01*
X184000001Y-131499999D02*
G75*
G03*
X183500000Y-130999999I-500001J-1D01*
G01*
X176500000Y-135999999D02*
X178000000Y-136000000D01*
X176000000Y-135500000D02*
G75*
G03*
X176500000Y-135999999I500000J1D01*
G01*
X182000000Y-138000000D02*
X185000000Y-137999999D01*
X186000000Y-136999999D02*
X186000000Y-135499999D01*
X186000000Y-131499999D02*
X186000000Y-128499999D01*
X185000000Y-138000000D02*
G75*
G03*
X186000000Y-136999999I0J1000000D01*
G01*
X182000000Y-136000000D02*
X183500000Y-135999999D01*
X174000000Y-136999999D02*
X174000000Y-135500000D01*
X175000000Y-137999999D02*
X178000000Y-138000000D01*
X176500000Y-123999999D02*
G75*
G03*
X176000000Y-124500000I0J-500000D01*
G01*
X176500000Y-130999999D02*
X178000000Y-131000000D01*
X183500000Y-136000000D02*
G75*
G03*
X184000000Y-135499999I0J500000D01*
G01*
X183500000Y-129000000D02*
G75*
G03*
X184000000Y-128499999I0J500000D01*
G01*
X174000000Y-136999999D02*
G75*
G03*
X175000000Y-137999999I999999J-1D01*
G01*
X184000000Y-115999999D02*
G75*
G03*
X186000000Y-115999999I1000000J0D01*
G01*
X184000000Y-124499999D02*
G75*
G03*
X186000000Y-124499999I1000000J0D01*
G01*
X186000000Y-135499999D02*
G75*
G03*
X184000000Y-135499999I-1000000J0D01*
G01*
X186000000Y-128499999D02*
G75*
G03*
X184000000Y-128499999I-1000000J0D01*
G01*
X186000000Y-119999999D02*
G75*
G03*
X184000000Y-119999999I-1000000J0D01*
G01*
X184000000Y-131499999D02*
G75*
G03*
X186000000Y-131499999I1000000J0D01*
G01*
X174000000Y-116000000D02*
G75*
G03*
X176000000Y-116000000I1000000J0D01*
G01*
X178000000Y-124000000D02*
G75*
G03*
X178000000Y-122000000I0J1000000D01*
G01*
X174000000Y-131500000D02*
G75*
G03*
X176000000Y-131500000I1000000J0D01*
G01*
X176000000Y-135500000D02*
G75*
G03*
X174000000Y-135500000I-1000000J0D01*
G01*
X176000000Y-120000000D02*
G75*
G03*
X174000000Y-120000000I-1000000J0D01*
G01*
X182000000Y-122000000D02*
G75*
G03*
X182000000Y-124000000I0J-1000000D01*
G01*
X182000000Y-129000000D02*
G75*
G03*
X182000000Y-131000000I0J-1000000D01*
G01*
X178000000Y-131000000D02*
G75*
G03*
X178000000Y-129000000I0J1000000D01*
G01*
X176000000Y-128500000D02*
G75*
G03*
X174000000Y-128500000I-1000000J0D01*
G01*
X178000000Y-138000000D02*
G75*
G03*
X178000000Y-136000000I0J1000000D01*
G01*
X182000000Y-136000000D02*
G75*
G03*
X182000000Y-138000000I0J-1000000D01*
G01*
X174000000Y-124500000D02*
G75*
G03*
X176000000Y-124500000I1000000J0D01*
G01*
X178000000Y-113999999D02*
G75*
G03*
X178000000Y-111999999I0J1000000D01*
G01*
X182000000Y-111999999D02*
G75*
G03*
X182000000Y-113999999I0J-1000000D01*
G01*
X169000000Y-81999998D02*
X169000000Y-84999998D01*
X159000000Y-97499999D02*
G75*
G03*
X159500000Y-97999998I500000J1D01*
G01*
X158000000Y-80999998D02*
X159500000Y-80999998D01*
X169000000Y-93499998D02*
X169000000Y-91499998D01*
X159500000Y-82999998D02*
X161000000Y-82999998D01*
X166500000Y-97999998D02*
X165000000Y-97999999D01*
X159500000Y-92999998D02*
G75*
G03*
X159000000Y-93499999I0J-500000D01*
G01*
X168000000Y-80999998D02*
X166500000Y-80999998D01*
X159000000Y-90499998D02*
G75*
G03*
X159500000Y-90999998I500001J1D01*
G01*
X158000000Y-106999998D02*
X161000000Y-106999999D01*
X169000000Y-104499998D02*
G75*
G03*
X167000000Y-104499998I-1000000J0D01*
G01*
X157000000Y-93499999D02*
X157000000Y-88999999D01*
X167000002Y-100499998D02*
G75*
G03*
X166500000Y-99999998I-500002J-2D01*
G01*
X157000000Y-105999998D02*
X157000000Y-104499999D01*
X158000000Y-80999998D02*
G75*
G03*
X157000000Y-81999998I-1J-999999D01*
G01*
X169000002Y-81999998D02*
G75*
G03*
X168000000Y-80999998I-1000002J-2D01*
G01*
X165000000Y-80999998D02*
X166500000Y-80999998D01*
X166500000Y-99999998D02*
X165000000Y-99999999D01*
X159000000Y-104499999D02*
G75*
G03*
X159500000Y-104999998I500000J1D01*
G01*
X169000000Y-91499998D02*
X169000000Y-88999998D01*
X157000000Y-84999999D02*
X157000000Y-81999998D01*
X166500000Y-90999998D02*
X165000000Y-90999999D01*
X159500000Y-99999998D02*
X161000000Y-99999999D01*
X157000000Y-100499999D02*
X157000000Y-97499999D01*
X159500000Y-80999998D02*
X161000000Y-80999998D01*
X159500000Y-82999998D02*
G75*
G03*
X159000000Y-83499998I1J-500001D01*
G01*
X165000000Y-106999999D02*
X168000000Y-106999998D01*
X166500000Y-98000000D02*
G75*
G03*
X167000000Y-97499998I0J500000D01*
G01*
X165000000Y-104999999D02*
X166500000Y-104999998D01*
X166500000Y-92999998D02*
X165000000Y-92999999D01*
X165000000Y-82999998D02*
X166500000Y-82999998D01*
X161000000Y-90999999D02*
X159500000Y-90999998D01*
X168000000Y-107000000D02*
G75*
G03*
X169000000Y-105999998I0J1000000D01*
G01*
X159500000Y-104999998D02*
X161000000Y-104999999D01*
X159500000Y-97999998D02*
X161000000Y-97999999D01*
X167000000Y-84999998D02*
X167000000Y-83499998D01*
X169000000Y-100499998D02*
X169000000Y-97499998D01*
X166500000Y-105000000D02*
G75*
G03*
X167000000Y-104499998I0J500000D01*
G01*
X167000002Y-93499998D02*
G75*
G03*
X166500000Y-92999998I-500002J-2D01*
G01*
X169000000Y-97499998D02*
G75*
G03*
X167000000Y-97499998I-1000000J0D01*
G01*
X159000000Y-90499998D02*
X159000000Y-88999999D01*
X159500000Y-92999998D02*
X161000000Y-92999999D01*
X167000002Y-83499998D02*
G75*
G03*
X166500000Y-82999998I-500002J-2D01*
G01*
X157000000Y-105999998D02*
G75*
G03*
X158000000Y-106999998I999999J-1D01*
G01*
X169000000Y-105999998D02*
X169000000Y-104499998D01*
X167000000Y-93499998D02*
G75*
G03*
X169000000Y-93499998I1000000J0D01*
G01*
X159000000Y-84999999D02*
X159000000Y-83499998D01*
X167000000Y-88999998D02*
X167000000Y-90499998D01*
X167000000Y-84999998D02*
G75*
G03*
X169000000Y-84999998I1000000J0D01*
G01*
X159500000Y-99999998D02*
G75*
G03*
X159000000Y-100499999I0J-500000D01*
G01*
X166500000Y-91000000D02*
G75*
G03*
X167000000Y-90499998I0J500000D01*
G01*
X169000001Y-112999999D02*
G75*
G03*
X168000000Y-111999999I-1000001J-1D01*
G01*
X161000000Y-82999998D02*
G75*
G03*
X161000000Y-80999998I0J1000000D01*
G01*
X161000000Y-92999999D02*
G75*
G03*
X161000000Y-90999999I0J1000000D01*
G01*
X157000000Y-100499999D02*
G75*
G03*
X159000000Y-100499999I1000000J0D01*
G01*
X157000000Y-116000000D02*
X157000000Y-112999999D01*
X159000000Y-104499999D02*
G75*
G03*
X157000000Y-104499999I-1000000J0D01*
G01*
X159000000Y-88999999D02*
G75*
G03*
X157000000Y-88999999I-1000000J0D01*
G01*
X161000000Y-99999999D02*
G75*
G03*
X161000000Y-97999999I0J1000000D01*
G01*
X159000000Y-97499999D02*
G75*
G03*
X157000000Y-97499999I-1000000J0D01*
G01*
X169000000Y-112999999D02*
X169000000Y-115999999D01*
X158000000Y-111999999D02*
X159500000Y-111999999D01*
X161000000Y-106999999D02*
G75*
G03*
X161000000Y-104999999I0J1000000D01*
G01*
X165000000Y-104999999D02*
G75*
G03*
X165000000Y-106999999I0J-1000000D01*
G01*
X158000000Y-111999999D02*
G75*
G03*
X157000000Y-112999999I-1J-999999D01*
G01*
X157000000Y-93499999D02*
G75*
G03*
X159000000Y-93499999I1000000J0D01*
G01*
X165000000Y-80999998D02*
G75*
G03*
X165000000Y-82999998I1J-1000000D01*
G01*
X165000000Y-90999999D02*
G75*
G03*
X165000000Y-92999999I0J-1000000D01*
G01*
X169000000Y-88999998D02*
G75*
G03*
X167000000Y-88999998I-1000000J0D01*
G01*
X167000000Y-100499998D02*
G75*
G03*
X169000000Y-100499998I1000000J0D01*
G01*
X157000000Y-84999999D02*
G75*
G03*
X159000000Y-84999999I1000000J0D01*
G01*
X165000000Y-97999999D02*
G75*
G03*
X165000000Y-99999999I0J-1000000D01*
G01*
X168000000Y-111999999D02*
X166500000Y-111999999D01*
X157000000Y-53999999D02*
X157000000Y-50999998D01*
X169000000Y-73499998D02*
G75*
G03*
X167000000Y-73499998I-1000000J0D01*
G01*
X158000000Y-75999998D02*
X161000000Y-75999999D01*
X169000000Y-62499998D02*
X169000000Y-60499998D01*
X157000000Y-69499999D02*
X157000000Y-66499999D01*
X169000000Y-60499998D02*
X169000000Y-57999998D01*
X169000000Y-50999998D02*
X169000000Y-53999998D01*
X159500000Y-61999998D02*
G75*
G03*
X159000000Y-62499999I0J-500000D01*
G01*
X165000000Y-49999998D02*
X166500000Y-49999998D01*
X159000000Y-73499999D02*
G75*
G03*
X159500000Y-73999998I500000J1D01*
G01*
X166500000Y-68999998D02*
X165000000Y-68999999D01*
X166500000Y-66999998D02*
X165000000Y-66999999D01*
X169000002Y-50999998D02*
G75*
G03*
X168000000Y-49999998I-1000002J-2D01*
G01*
X159000000Y-59499998D02*
G75*
G03*
X159500000Y-59999998I500001J1D01*
G01*
X166500000Y-59999998D02*
X165000000Y-59999999D01*
X157000000Y-74999998D02*
X157000000Y-73499999D01*
X167000002Y-69499998D02*
G75*
G03*
X166500000Y-68999998I-500002J-2D01*
G01*
X159500000Y-68999998D02*
X161000000Y-68999999D01*
X168000000Y-49999998D02*
X166500000Y-49999998D01*
X158000000Y-49999998D02*
G75*
G03*
X157000000Y-50999998I-1J-999999D01*
G01*
X159500000Y-51999998D02*
X161000000Y-51999998D01*
X157000000Y-62499999D02*
X157000000Y-57999999D01*
X159000000Y-66499999D02*
G75*
G03*
X159500000Y-66999998I500000J1D01*
G01*
X158000000Y-49999998D02*
X159500000Y-49999998D01*
X159500000Y-61999998D02*
X161000000Y-61999999D01*
X159000000Y-53999999D02*
X159000000Y-52499998D01*
X161000000Y-51999998D02*
G75*
G03*
X161000000Y-49999998I0J1000000D01*
G01*
X159000000Y-66499999D02*
G75*
G03*
X157000000Y-66499999I-1000000J0D01*
G01*
X165000000Y-59999999D02*
G75*
G03*
X165000000Y-61999999I0J-1000000D01*
G01*
X159000000Y-59499998D02*
X159000000Y-57999999D01*
X165000000Y-73999999D02*
X166500000Y-73999998D01*
X161000000Y-68999999D02*
G75*
G03*
X161000000Y-66999999I0J1000000D01*
G01*
X165000000Y-51999998D02*
X166500000Y-51999998D01*
X157000000Y-53999999D02*
G75*
G03*
X159000000Y-53999999I1000000J0D01*
G01*
X159500000Y-73999998D02*
X161000000Y-73999999D01*
X159500000Y-66999998D02*
X161000000Y-66999999D01*
X167000002Y-52499998D02*
G75*
G03*
X166500000Y-51999998I-500002J-2D01*
G01*
X157000000Y-74999998D02*
G75*
G03*
X158000000Y-75999998I999999J-1D01*
G01*
X167000000Y-57999998D02*
X167000000Y-59499998D01*
X159500000Y-68999998D02*
G75*
G03*
X159000000Y-69499999I0J-500000D01*
G01*
X165000000Y-66999999D02*
G75*
G03*
X165000000Y-68999999I0J-1000000D01*
G01*
X161000000Y-61999999D02*
G75*
G03*
X161000000Y-59999999I0J1000000D01*
G01*
X159000000Y-57999999D02*
G75*
G03*
X157000000Y-57999999I-1000000J0D01*
G01*
X169000000Y-57999998D02*
G75*
G03*
X167000000Y-57999998I-1000000J0D01*
G01*
X161000000Y-59999999D02*
X159500000Y-59999998D01*
X168000000Y-76000000D02*
G75*
G03*
X169000000Y-74999998I0J1000000D01*
G01*
X167000000Y-53999998D02*
G75*
G03*
X169000000Y-53999998I1000000J0D01*
G01*
X157000000Y-62499999D02*
G75*
G03*
X159000000Y-62499999I1000000J0D01*
G01*
X161000000Y-75999999D02*
G75*
G03*
X161000000Y-73999999I0J1000000D01*
G01*
X167000000Y-53999998D02*
X167000000Y-52499998D01*
X167000000Y-62499998D02*
G75*
G03*
X169000000Y-62499998I1000000J0D01*
G01*
X159000000Y-73499999D02*
G75*
G03*
X157000000Y-73499999I-1000000J0D01*
G01*
X166500000Y-60000000D02*
G75*
G03*
X167000000Y-59499998I0J500000D01*
G01*
X167000000Y-69499998D02*
G75*
G03*
X169000000Y-69499998I1000000J0D01*
G01*
X165000000Y-73999999D02*
G75*
G03*
X165000000Y-75999999I0J-1000000D01*
G01*
X165000000Y-49999998D02*
G75*
G03*
X165000000Y-51999998I1J-1000000D01*
G01*
X169000000Y-74999998D02*
X169000000Y-73499998D01*
X159500000Y-49999998D02*
X161000000Y-49999998D01*
X167000002Y-62499998D02*
G75*
G03*
X166500000Y-61999998I-500002J-2D01*
G01*
X157000000Y-69499999D02*
G75*
G03*
X159000000Y-69499999I1000000J0D01*
G01*
X159500000Y-51999998D02*
G75*
G03*
X159000000Y-52499998I1J-500001D01*
G01*
X165000000Y-75999999D02*
X168000000Y-75999998D01*
X166500000Y-67000000D02*
G75*
G03*
X167000000Y-66499998I0J500000D01*
G01*
X166500000Y-61999998D02*
X165000000Y-61999999D01*
X169000000Y-69499998D02*
X169000000Y-66499998D01*
X166500000Y-74000000D02*
G75*
G03*
X167000000Y-73499998I0J500000D01*
G01*
X169000000Y-66499998D02*
G75*
G03*
X167000000Y-66499998I-1000000J0D01*
G01*
X169000000Y-124499999D02*
X169000000Y-122499999D01*
X166500000Y-122000000D02*
G75*
G03*
X167000000Y-121499999I0J500000D01*
G01*
X166500000Y-123999999D02*
X165000000Y-124000000D01*
X167000001Y-124499999D02*
G75*
G03*
X166500000Y-123999999I-500001J-1D01*
G01*
X159500000Y-123999999D02*
X161000000Y-124000000D01*
X165000000Y-111999999D02*
X166500000Y-111999999D01*
X167000001Y-114499999D02*
G75*
G03*
X166500000Y-113999999I-500001J-1D01*
G01*
X159500000Y-113999999D02*
X161000000Y-113999999D01*
X159000000Y-121499999D02*
G75*
G03*
X159500000Y-121999999I500001J1D01*
G01*
X157000000Y-124500000D02*
X157000000Y-120000000D01*
X159500000Y-113999999D02*
G75*
G03*
X159000000Y-114499999I1J-500001D01*
G01*
X159000000Y-116000000D02*
X159000000Y-114499999D01*
X166500000Y-121999999D02*
X165000000Y-122000000D01*
X159500000Y-111999999D02*
X161000000Y-111999999D01*
X167000000Y-115999999D02*
X167000000Y-114499999D01*
X159000000Y-121499999D02*
X159000000Y-120000000D01*
X167000000Y-119999999D02*
X167000000Y-121499999D01*
X169000000Y-122499999D02*
X169000000Y-119999999D01*
X165000000Y-113999999D02*
X166500000Y-113999999D01*
X161000000Y-122000000D02*
X159500000Y-121999999D01*
X166500000Y-128999999D02*
X165000000Y-129000000D01*
X157000000Y-131500000D02*
X157000000Y-128500000D01*
X159500000Y-128999999D02*
X161000000Y-129000000D01*
X159500000Y-130999999D02*
G75*
G03*
X159000000Y-131500000I0J-500000D01*
G01*
X159000000Y-128500000D02*
G75*
G03*
X159500000Y-128999999I500000J1D01*
G01*
X166500000Y-130999999D02*
X165000000Y-131000000D01*
X167000001Y-131499999D02*
G75*
G03*
X166500000Y-130999999I-500001J-1D01*
G01*
X159500000Y-135999999D02*
X161000000Y-136000000D01*
X159000000Y-135500000D02*
G75*
G03*
X159500000Y-135999999I500000J1D01*
G01*
X165000000Y-138000000D02*
X168000000Y-137999999D01*
X169000000Y-136999999D02*
X169000000Y-135499999D01*
X169000000Y-131499999D02*
X169000000Y-128499999D01*
X168000000Y-138000000D02*
G75*
G03*
X169000000Y-136999999I0J1000000D01*
G01*
X165000000Y-136000000D02*
X166500000Y-135999999D01*
X157000000Y-136999999D02*
X157000000Y-135500000D01*
X158000000Y-137999999D02*
X161000000Y-138000000D01*
X159500000Y-123999999D02*
G75*
G03*
X159000000Y-124500000I0J-500000D01*
G01*
X159500000Y-130999999D02*
X161000000Y-131000000D01*
X166500000Y-136000000D02*
G75*
G03*
X167000000Y-135499999I0J500000D01*
G01*
X166500000Y-129000000D02*
G75*
G03*
X167000000Y-128499999I0J500000D01*
G01*
X157000000Y-136999999D02*
G75*
G03*
X158000000Y-137999999I999999J-1D01*
G01*
X167000000Y-115999999D02*
G75*
G03*
X169000000Y-115999999I1000000J0D01*
G01*
X167000000Y-124499999D02*
G75*
G03*
X169000000Y-124499999I1000000J0D01*
G01*
X169000000Y-135499999D02*
G75*
G03*
X167000000Y-135499999I-1000000J0D01*
G01*
X169000000Y-128499999D02*
G75*
G03*
X167000000Y-128499999I-1000000J0D01*
G01*
X169000000Y-119999999D02*
G75*
G03*
X167000000Y-119999999I-1000000J0D01*
G01*
X167000000Y-131499999D02*
G75*
G03*
X169000000Y-131499999I1000000J0D01*
G01*
X157000000Y-116000000D02*
G75*
G03*
X159000000Y-116000000I1000000J0D01*
G01*
X161000000Y-124000000D02*
G75*
G03*
X161000000Y-122000000I0J1000000D01*
G01*
X157000000Y-131500000D02*
G75*
G03*
X159000000Y-131500000I1000000J0D01*
G01*
X159000000Y-135500000D02*
G75*
G03*
X157000000Y-135500000I-1000000J0D01*
G01*
X159000000Y-120000000D02*
G75*
G03*
X157000000Y-120000000I-1000000J0D01*
G01*
X165000000Y-122000000D02*
G75*
G03*
X165000000Y-124000000I0J-1000000D01*
G01*
X165000000Y-129000000D02*
G75*
G03*
X165000000Y-131000000I0J-1000000D01*
G01*
X161000000Y-131000000D02*
G75*
G03*
X161000000Y-129000000I0J1000000D01*
G01*
X159000000Y-128500000D02*
G75*
G03*
X157000000Y-128500000I-1000000J0D01*
G01*
X161000000Y-138000000D02*
G75*
G03*
X161000000Y-136000000I0J1000000D01*
G01*
X165000000Y-136000000D02*
G75*
G03*
X165000000Y-138000000I0J-1000000D01*
G01*
X157000000Y-124500000D02*
G75*
G03*
X159000000Y-124500000I1000000J0D01*
G01*
X161000000Y-113999999D02*
G75*
G03*
X161000000Y-111999999I0J1000000D01*
G01*
X165000000Y-111999999D02*
G75*
G03*
X165000000Y-113999999I0J-1000000D01*
G01*
X152000000Y-81999998D02*
X152000000Y-84999998D01*
X142000000Y-97499999D02*
G75*
G03*
X142500000Y-97999998I500000J1D01*
G01*
X141000000Y-80999998D02*
X142500000Y-80999998D01*
X152000000Y-93499998D02*
X152000000Y-91499998D01*
X142500000Y-82999998D02*
X144000000Y-82999998D01*
X149500000Y-97999998D02*
X148000000Y-97999999D01*
X142500000Y-92999998D02*
G75*
G03*
X142000000Y-93499999I0J-500000D01*
G01*
X151000000Y-80999998D02*
X149500000Y-80999998D01*
X142000000Y-90499998D02*
G75*
G03*
X142500000Y-90999998I500001J1D01*
G01*
X141000000Y-106999998D02*
X144000000Y-106999999D01*
X152000000Y-104499998D02*
G75*
G03*
X150000000Y-104499998I-1000000J0D01*
G01*
X140000000Y-93499999D02*
X140000000Y-88999999D01*
X150000002Y-100499998D02*
G75*
G03*
X149500000Y-99999998I-500002J-2D01*
G01*
X140000000Y-105999998D02*
X140000000Y-104499999D01*
X141000000Y-80999998D02*
G75*
G03*
X140000000Y-81999998I-1J-999999D01*
G01*
X152000002Y-81999998D02*
G75*
G03*
X151000000Y-80999998I-1000002J-2D01*
G01*
X148000000Y-80999998D02*
X149500000Y-80999998D01*
X149500000Y-99999998D02*
X148000000Y-99999999D01*
X142000000Y-104499999D02*
G75*
G03*
X142500000Y-104999998I500000J1D01*
G01*
X152000000Y-91499998D02*
X152000000Y-88999998D01*
X140000000Y-84999999D02*
X140000000Y-81999998D01*
X149500000Y-90999998D02*
X148000000Y-90999999D01*
X142500000Y-99999998D02*
X144000000Y-99999999D01*
X140000000Y-100499999D02*
X140000000Y-97499999D01*
X142500000Y-80999998D02*
X144000000Y-80999998D01*
X142500000Y-82999998D02*
G75*
G03*
X142000000Y-83499998I1J-500001D01*
G01*
X148000000Y-106999999D02*
X151000000Y-106999998D01*
X149500000Y-98000000D02*
G75*
G03*
X150000000Y-97499998I0J500000D01*
G01*
X148000000Y-104999999D02*
X149500000Y-104999998D01*
X149500000Y-92999998D02*
X148000000Y-92999999D01*
X148000000Y-82999998D02*
X149500000Y-82999998D01*
X144000000Y-90999999D02*
X142500000Y-90999998D01*
X151000000Y-107000000D02*
G75*
G03*
X152000000Y-105999998I0J1000000D01*
G01*
X142500000Y-104999998D02*
X144000000Y-104999999D01*
X142500000Y-97999998D02*
X144000000Y-97999999D01*
X150000000Y-84999998D02*
X150000000Y-83499998D01*
X152000000Y-100499998D02*
X152000000Y-97499998D01*
X149500000Y-105000000D02*
G75*
G03*
X150000000Y-104499998I0J500000D01*
G01*
X150000002Y-93499998D02*
G75*
G03*
X149500000Y-92999998I-500002J-2D01*
G01*
X152000000Y-97499998D02*
G75*
G03*
X150000000Y-97499998I-1000000J0D01*
G01*
X142000000Y-90499998D02*
X142000000Y-88999999D01*
X142500000Y-92999998D02*
X144000000Y-92999999D01*
X150000002Y-83499998D02*
G75*
G03*
X149500000Y-82999998I-500002J-2D01*
G01*
X140000000Y-105999998D02*
G75*
G03*
X141000000Y-106999998I999999J-1D01*
G01*
X152000000Y-105999998D02*
X152000000Y-104499998D01*
X150000000Y-93499998D02*
G75*
G03*
X152000000Y-93499998I1000000J0D01*
G01*
X142000000Y-84999999D02*
X142000000Y-83499998D01*
X150000000Y-88999998D02*
X150000000Y-90499998D01*
X150000000Y-84999998D02*
G75*
G03*
X152000000Y-84999998I1000000J0D01*
G01*
X142500000Y-99999998D02*
G75*
G03*
X142000000Y-100499999I0J-500000D01*
G01*
X149500000Y-91000000D02*
G75*
G03*
X150000000Y-90499998I0J500000D01*
G01*
X152000001Y-112999999D02*
G75*
G03*
X151000000Y-111999999I-1000001J-1D01*
G01*
X144000000Y-82999998D02*
G75*
G03*
X144000000Y-80999998I0J1000000D01*
G01*
X144000000Y-92999999D02*
G75*
G03*
X144000000Y-90999999I0J1000000D01*
G01*
X140000000Y-100499999D02*
G75*
G03*
X142000000Y-100499999I1000000J0D01*
G01*
X140000000Y-116000000D02*
X140000000Y-112999999D01*
X142000000Y-104499999D02*
G75*
G03*
X140000000Y-104499999I-1000000J0D01*
G01*
X142000000Y-88999999D02*
G75*
G03*
X140000000Y-88999999I-1000000J0D01*
G01*
X144000000Y-99999999D02*
G75*
G03*
X144000000Y-97999999I0J1000000D01*
G01*
X142000000Y-97499999D02*
G75*
G03*
X140000000Y-97499999I-1000000J0D01*
G01*
X152000000Y-112999999D02*
X152000000Y-115999999D01*
X141000000Y-111999999D02*
X142500000Y-111999999D01*
X144000000Y-106999999D02*
G75*
G03*
X144000000Y-104999999I0J1000000D01*
G01*
X148000000Y-104999999D02*
G75*
G03*
X148000000Y-106999999I0J-1000000D01*
G01*
X141000000Y-111999999D02*
G75*
G03*
X140000000Y-112999999I-1J-999999D01*
G01*
X140000000Y-93499999D02*
G75*
G03*
X142000000Y-93499999I1000000J0D01*
G01*
X148000000Y-80999998D02*
G75*
G03*
X148000000Y-82999998I1J-1000000D01*
G01*
X148000000Y-90999999D02*
G75*
G03*
X148000000Y-92999999I0J-1000000D01*
G01*
X152000000Y-88999998D02*
G75*
G03*
X150000000Y-88999998I-1000000J0D01*
G01*
X150000000Y-100499998D02*
G75*
G03*
X152000000Y-100499998I1000000J0D01*
G01*
X140000000Y-84999999D02*
G75*
G03*
X142000000Y-84999999I1000000J0D01*
G01*
X148000000Y-97999999D02*
G75*
G03*
X148000000Y-99999999I0J-1000000D01*
G01*
X151000000Y-111999999D02*
X149500000Y-111999999D01*
X140000000Y-53999999D02*
X140000000Y-50999998D01*
X152000000Y-73499998D02*
G75*
G03*
X150000000Y-73499998I-1000000J0D01*
G01*
X141000000Y-75999998D02*
X144000000Y-75999999D01*
X152000000Y-62499998D02*
X152000000Y-60499998D01*
X140000000Y-69499999D02*
X140000000Y-66499999D01*
X152000000Y-60499998D02*
X152000000Y-57999998D01*
X152000000Y-50999998D02*
X152000000Y-53999998D01*
X142500000Y-61999998D02*
G75*
G03*
X142000000Y-62499999I0J-500000D01*
G01*
X148000000Y-49999998D02*
X149500000Y-49999998D01*
X142000000Y-73499999D02*
G75*
G03*
X142500000Y-73999998I500000J1D01*
G01*
X149500000Y-68999998D02*
X148000000Y-68999999D01*
X149500000Y-66999998D02*
X148000000Y-66999999D01*
X152000002Y-50999998D02*
G75*
G03*
X151000000Y-49999998I-1000002J-2D01*
G01*
X142000000Y-59499998D02*
G75*
G03*
X142500000Y-59999998I500001J1D01*
G01*
X149500000Y-59999998D02*
X148000000Y-59999999D01*
X140000000Y-74999998D02*
X140000000Y-73499999D01*
X150000002Y-69499998D02*
G75*
G03*
X149500000Y-68999998I-500002J-2D01*
G01*
X142500000Y-68999998D02*
X144000000Y-68999999D01*
X151000000Y-49999998D02*
X149500000Y-49999998D01*
X141000000Y-49999998D02*
G75*
G03*
X140000000Y-50999998I-1J-999999D01*
G01*
X142500000Y-51999998D02*
X144000000Y-51999998D01*
X140000000Y-62499999D02*
X140000000Y-57999999D01*
X142000000Y-66499999D02*
G75*
G03*
X142500000Y-66999998I500000J1D01*
G01*
X141000000Y-49999998D02*
X142500000Y-49999998D01*
X142500000Y-61999998D02*
X144000000Y-61999999D01*
X142000000Y-53999999D02*
X142000000Y-52499998D01*
X144000000Y-51999998D02*
G75*
G03*
X144000000Y-49999998I0J1000000D01*
G01*
X142000000Y-66499999D02*
G75*
G03*
X140000000Y-66499999I-1000000J0D01*
G01*
X148000000Y-59999999D02*
G75*
G03*
X148000000Y-61999999I0J-1000000D01*
G01*
X142000000Y-59499998D02*
X142000000Y-57999999D01*
X148000000Y-73999999D02*
X149500000Y-73999998D01*
X144000000Y-68999999D02*
G75*
G03*
X144000000Y-66999999I0J1000000D01*
G01*
X148000000Y-51999998D02*
X149500000Y-51999998D01*
X140000000Y-53999999D02*
G75*
G03*
X142000000Y-53999999I1000000J0D01*
G01*
X142500000Y-73999998D02*
X144000000Y-73999999D01*
X142500000Y-66999998D02*
X144000000Y-66999999D01*
X150000002Y-52499998D02*
G75*
G03*
X149500000Y-51999998I-500002J-2D01*
G01*
X140000000Y-74999998D02*
G75*
G03*
X141000000Y-75999998I999999J-1D01*
G01*
X150000000Y-57999998D02*
X150000000Y-59499998D01*
X142500000Y-68999998D02*
G75*
G03*
X142000000Y-69499999I0J-500000D01*
G01*
X148000000Y-66999999D02*
G75*
G03*
X148000000Y-68999999I0J-1000000D01*
G01*
X144000000Y-61999999D02*
G75*
G03*
X144000000Y-59999999I0J1000000D01*
G01*
X142000000Y-57999999D02*
G75*
G03*
X140000000Y-57999999I-1000000J0D01*
G01*
X152000000Y-57999998D02*
G75*
G03*
X150000000Y-57999998I-1000000J0D01*
G01*
X144000000Y-59999999D02*
X142500000Y-59999998D01*
X151000000Y-76000000D02*
G75*
G03*
X152000000Y-74999998I0J1000000D01*
G01*
X150000000Y-53999998D02*
G75*
G03*
X152000000Y-53999998I1000000J0D01*
G01*
X140000000Y-62499999D02*
G75*
G03*
X142000000Y-62499999I1000000J0D01*
G01*
X144000000Y-75999999D02*
G75*
G03*
X144000000Y-73999999I0J1000000D01*
G01*
X150000000Y-53999998D02*
X150000000Y-52499998D01*
X150000000Y-62499998D02*
G75*
G03*
X152000000Y-62499998I1000000J0D01*
G01*
X142000000Y-73499999D02*
G75*
G03*
X140000000Y-73499999I-1000000J0D01*
G01*
X149500000Y-60000000D02*
G75*
G03*
X150000000Y-59499998I0J500000D01*
G01*
X150000000Y-69499998D02*
G75*
G03*
X152000000Y-69499998I1000000J0D01*
G01*
X148000000Y-73999999D02*
G75*
G03*
X148000000Y-75999999I0J-1000000D01*
G01*
X148000000Y-49999998D02*
G75*
G03*
X148000000Y-51999998I1J-1000000D01*
G01*
X152000000Y-74999998D02*
X152000000Y-73499998D01*
X142500000Y-49999998D02*
X144000000Y-49999998D01*
X150000002Y-62499998D02*
G75*
G03*
X149500000Y-61999998I-500002J-2D01*
G01*
X140000000Y-69499999D02*
G75*
G03*
X142000000Y-69499999I1000000J0D01*
G01*
X142500000Y-51999998D02*
G75*
G03*
X142000000Y-52499998I1J-500001D01*
G01*
X148000000Y-75999999D02*
X151000000Y-75999998D01*
X149500000Y-67000000D02*
G75*
G03*
X150000000Y-66499998I0J500000D01*
G01*
X149500000Y-61999998D02*
X148000000Y-61999999D01*
X152000000Y-69499998D02*
X152000000Y-66499998D01*
X149500000Y-74000000D02*
G75*
G03*
X150000000Y-73499998I0J500000D01*
G01*
X152000000Y-66499998D02*
G75*
G03*
X150000000Y-66499998I-1000000J0D01*
G01*
X152000000Y-124499999D02*
X152000000Y-122499999D01*
X149500000Y-122000000D02*
G75*
G03*
X150000000Y-121499999I0J500000D01*
G01*
X149500000Y-123999999D02*
X148000000Y-124000000D01*
X150000001Y-124499999D02*
G75*
G03*
X149500000Y-123999999I-500001J-1D01*
G01*
X142500000Y-123999999D02*
X144000000Y-124000000D01*
X148000000Y-111999999D02*
X149500000Y-111999999D01*
X150000001Y-114499999D02*
G75*
G03*
X149500000Y-113999999I-500001J-1D01*
G01*
X142500000Y-113999999D02*
X144000000Y-113999999D01*
X142000000Y-121499999D02*
G75*
G03*
X142500000Y-121999999I500001J1D01*
G01*
X140000000Y-124500000D02*
X140000000Y-120000000D01*
X142500000Y-113999999D02*
G75*
G03*
X142000000Y-114499999I1J-500001D01*
G01*
X142000000Y-116000000D02*
X142000000Y-114499999D01*
X149500000Y-121999999D02*
X148000000Y-122000000D01*
X142500000Y-111999999D02*
X144000000Y-111999999D01*
X150000000Y-115999999D02*
X150000000Y-114499999D01*
X142000000Y-121499999D02*
X142000000Y-120000000D01*
X150000000Y-119999999D02*
X150000000Y-121499999D01*
X152000000Y-122499999D02*
X152000000Y-119999999D01*
X148000000Y-113999999D02*
X149500000Y-113999999D01*
X144000000Y-122000000D02*
X142500000Y-121999999D01*
X149500000Y-128999999D02*
X148000000Y-129000000D01*
X140000000Y-131500000D02*
X140000000Y-128500000D01*
X142500000Y-128999999D02*
X144000000Y-129000000D01*
X142500000Y-130999999D02*
G75*
G03*
X142000000Y-131500000I0J-500000D01*
G01*
X142000000Y-128500000D02*
G75*
G03*
X142500000Y-128999999I500000J1D01*
G01*
X149500000Y-130999999D02*
X148000000Y-131000000D01*
X150000001Y-131499999D02*
G75*
G03*
X149500000Y-130999999I-500001J-1D01*
G01*
X142500000Y-135999999D02*
X144000000Y-136000000D01*
X142000000Y-135500000D02*
G75*
G03*
X142500000Y-135999999I500000J1D01*
G01*
X148000000Y-138000000D02*
X151000000Y-137999999D01*
X152000000Y-136999999D02*
X152000000Y-135499999D01*
X152000000Y-131499999D02*
X152000000Y-128499999D01*
X151000000Y-138000000D02*
G75*
G03*
X152000000Y-136999999I0J1000000D01*
G01*
X148000000Y-136000000D02*
X149500000Y-135999999D01*
X140000000Y-136999999D02*
X140000000Y-135500000D01*
X141000000Y-137999999D02*
X144000000Y-138000000D01*
X142500000Y-123999999D02*
G75*
G03*
X142000000Y-124500000I0J-500000D01*
G01*
X142500000Y-130999999D02*
X144000000Y-131000000D01*
X149500000Y-136000000D02*
G75*
G03*
X150000000Y-135499999I0J500000D01*
G01*
X149500000Y-129000000D02*
G75*
G03*
X150000000Y-128499999I0J500000D01*
G01*
X140000000Y-136999999D02*
G75*
G03*
X141000000Y-137999999I999999J-1D01*
G01*
X150000000Y-115999999D02*
G75*
G03*
X152000000Y-115999999I1000000J0D01*
G01*
X150000000Y-124499999D02*
G75*
G03*
X152000000Y-124499999I1000000J0D01*
G01*
X152000000Y-135499999D02*
G75*
G03*
X150000000Y-135499999I-1000000J0D01*
G01*
X152000000Y-128499999D02*
G75*
G03*
X150000000Y-128499999I-1000000J0D01*
G01*
X152000000Y-119999999D02*
G75*
G03*
X150000000Y-119999999I-1000000J0D01*
G01*
X150000000Y-131499999D02*
G75*
G03*
X152000000Y-131499999I1000000J0D01*
G01*
X140000000Y-116000000D02*
G75*
G03*
X142000000Y-116000000I1000000J0D01*
G01*
X144000000Y-124000000D02*
G75*
G03*
X144000000Y-122000000I0J1000000D01*
G01*
X140000000Y-131500000D02*
G75*
G03*
X142000000Y-131500000I1000000J0D01*
G01*
X142000000Y-135500000D02*
G75*
G03*
X140000000Y-135500000I-1000000J0D01*
G01*
X142000000Y-120000000D02*
G75*
G03*
X140000000Y-120000000I-1000000J0D01*
G01*
X148000000Y-122000000D02*
G75*
G03*
X148000000Y-124000000I0J-1000000D01*
G01*
X148000000Y-129000000D02*
G75*
G03*
X148000000Y-131000000I0J-1000000D01*
G01*
X144000000Y-131000000D02*
G75*
G03*
X144000000Y-129000000I0J1000000D01*
G01*
X142000000Y-128500000D02*
G75*
G03*
X140000000Y-128500000I-1000000J0D01*
G01*
X144000000Y-138000000D02*
G75*
G03*
X144000000Y-136000000I0J1000000D01*
G01*
X148000000Y-136000000D02*
G75*
G03*
X148000000Y-138000000I0J-1000000D01*
G01*
X140000000Y-124500000D02*
G75*
G03*
X142000000Y-124500000I1000000J0D01*
G01*
X144000000Y-113999999D02*
G75*
G03*
X144000000Y-111999999I0J1000000D01*
G01*
X148000000Y-111999999D02*
G75*
G03*
X148000000Y-113999999I0J-1000000D01*
G01*
X135000000Y-81999998D02*
X135000000Y-84999998D01*
X125000000Y-97499999D02*
G75*
G03*
X125500000Y-97999998I500000J1D01*
G01*
X124000000Y-80999998D02*
X125500000Y-80999998D01*
X135000000Y-93499998D02*
X135000000Y-91499998D01*
X125500000Y-82999998D02*
X127000000Y-82999998D01*
X132500000Y-97999998D02*
X131000000Y-97999999D01*
X125500000Y-92999998D02*
G75*
G03*
X125000000Y-93499999I0J-500000D01*
G01*
X134000000Y-80999998D02*
X132500000Y-80999998D01*
X125000000Y-90499998D02*
G75*
G03*
X125500000Y-90999998I500001J1D01*
G01*
X124000000Y-106999998D02*
X127000000Y-106999999D01*
X135000000Y-104499998D02*
G75*
G03*
X133000000Y-104499998I-1000000J0D01*
G01*
X123000000Y-93499999D02*
X123000000Y-88999999D01*
X133000002Y-100499998D02*
G75*
G03*
X132500000Y-99999998I-500002J-2D01*
G01*
X123000000Y-105999998D02*
X123000000Y-104499999D01*
X124000000Y-80999998D02*
G75*
G03*
X123000000Y-81999998I-1J-999999D01*
G01*
X135000002Y-81999998D02*
G75*
G03*
X134000000Y-80999998I-1000002J-2D01*
G01*
X131000000Y-80999998D02*
X132500000Y-80999998D01*
X132500000Y-99999998D02*
X131000000Y-99999999D01*
X125000000Y-104499999D02*
G75*
G03*
X125500000Y-104999998I500000J1D01*
G01*
X135000000Y-91499998D02*
X135000000Y-88999998D01*
X123000000Y-84999999D02*
X123000000Y-81999998D01*
X132500000Y-90999998D02*
X131000000Y-90999999D01*
X125500000Y-99999998D02*
X127000000Y-99999999D01*
X123000000Y-100499999D02*
X123000000Y-97499999D01*
X125500000Y-80999998D02*
X127000000Y-80999998D01*
X125500000Y-82999998D02*
G75*
G03*
X125000000Y-83499998I1J-500001D01*
G01*
X131000000Y-106999999D02*
X134000000Y-106999998D01*
X132500000Y-98000000D02*
G75*
G03*
X133000000Y-97499998I0J500000D01*
G01*
X131000000Y-104999999D02*
X132500000Y-104999998D01*
X132500000Y-92999998D02*
X131000000Y-92999999D01*
X131000000Y-82999998D02*
X132500000Y-82999998D01*
X127000000Y-90999999D02*
X125500000Y-90999998D01*
X134000000Y-107000000D02*
G75*
G03*
X135000000Y-105999998I0J1000000D01*
G01*
X125500000Y-104999998D02*
X127000000Y-104999999D01*
X125500000Y-97999998D02*
X127000000Y-97999999D01*
X133000000Y-84999998D02*
X133000000Y-83499998D01*
X135000000Y-100499998D02*
X135000000Y-97499998D01*
X132500000Y-105000000D02*
G75*
G03*
X133000000Y-104499998I0J500000D01*
G01*
X133000002Y-93499998D02*
G75*
G03*
X132500000Y-92999998I-500002J-2D01*
G01*
X135000000Y-97499998D02*
G75*
G03*
X133000000Y-97499998I-1000000J0D01*
G01*
X125000000Y-90499998D02*
X125000000Y-88999999D01*
X125500000Y-92999998D02*
X127000000Y-92999999D01*
X133000002Y-83499998D02*
G75*
G03*
X132500000Y-82999998I-500002J-2D01*
G01*
X123000000Y-105999998D02*
G75*
G03*
X124000000Y-106999998I999999J-1D01*
G01*
X135000000Y-105999998D02*
X135000000Y-104499998D01*
X133000000Y-93499998D02*
G75*
G03*
X135000000Y-93499998I1000000J0D01*
G01*
X125000000Y-84999999D02*
X125000000Y-83499998D01*
X133000000Y-88999998D02*
X133000000Y-90499998D01*
X133000000Y-84999998D02*
G75*
G03*
X135000000Y-84999998I1000000J0D01*
G01*
X125500000Y-99999998D02*
G75*
G03*
X125000000Y-100499999I0J-500000D01*
G01*
X132500000Y-91000000D02*
G75*
G03*
X133000000Y-90499998I0J500000D01*
G01*
X135000001Y-112999999D02*
G75*
G03*
X134000000Y-111999999I-1000001J-1D01*
G01*
X127000000Y-82999998D02*
G75*
G03*
X127000000Y-80999998I0J1000000D01*
G01*
X127000000Y-92999999D02*
G75*
G03*
X127000000Y-90999999I0J1000000D01*
G01*
X123000000Y-100499999D02*
G75*
G03*
X125000000Y-100499999I1000000J0D01*
G01*
X123000000Y-116000000D02*
X123000000Y-112999999D01*
X125000000Y-104499999D02*
G75*
G03*
X123000000Y-104499999I-1000000J0D01*
G01*
X125000000Y-88999999D02*
G75*
G03*
X123000000Y-88999999I-1000000J0D01*
G01*
X127000000Y-99999999D02*
G75*
G03*
X127000000Y-97999999I0J1000000D01*
G01*
X125000000Y-97499999D02*
G75*
G03*
X123000000Y-97499999I-1000000J0D01*
G01*
X135000000Y-112999999D02*
X135000000Y-115999999D01*
X124000000Y-111999999D02*
X125500000Y-111999999D01*
X127000000Y-106999999D02*
G75*
G03*
X127000000Y-104999999I0J1000000D01*
G01*
X131000000Y-104999999D02*
G75*
G03*
X131000000Y-106999999I0J-1000000D01*
G01*
X124000000Y-111999999D02*
G75*
G03*
X123000000Y-112999999I-1J-999999D01*
G01*
X123000000Y-93499999D02*
G75*
G03*
X125000000Y-93499999I1000000J0D01*
G01*
X131000000Y-80999998D02*
G75*
G03*
X131000000Y-82999998I1J-1000000D01*
G01*
X131000000Y-90999999D02*
G75*
G03*
X131000000Y-92999999I0J-1000000D01*
G01*
X135000000Y-88999998D02*
G75*
G03*
X133000000Y-88999998I-1000000J0D01*
G01*
X133000000Y-100499998D02*
G75*
G03*
X135000000Y-100499998I1000000J0D01*
G01*
X123000000Y-84999999D02*
G75*
G03*
X125000000Y-84999999I1000000J0D01*
G01*
X131000000Y-97999999D02*
G75*
G03*
X131000000Y-99999999I0J-1000000D01*
G01*
X134000000Y-111999999D02*
X132500000Y-111999999D01*
X123000000Y-53999999D02*
X123000000Y-50999998D01*
X135000000Y-73499998D02*
G75*
G03*
X133000000Y-73499998I-1000000J0D01*
G01*
X124000000Y-75999998D02*
X127000000Y-75999999D01*
X135000000Y-62499998D02*
X135000000Y-60499998D01*
X123000000Y-69499999D02*
X123000000Y-66499999D01*
X135000000Y-60499998D02*
X135000000Y-57999998D01*
X135000000Y-50999998D02*
X135000000Y-53999998D01*
X125500000Y-61999998D02*
G75*
G03*
X125000000Y-62499999I0J-500000D01*
G01*
X131000000Y-49999998D02*
X132500000Y-49999998D01*
X125000000Y-73499999D02*
G75*
G03*
X125500000Y-73999998I500000J1D01*
G01*
X132500000Y-68999998D02*
X131000000Y-68999999D01*
X132500000Y-66999998D02*
X131000000Y-66999999D01*
X135000002Y-50999998D02*
G75*
G03*
X134000000Y-49999998I-1000002J-2D01*
G01*
X125000000Y-59499998D02*
G75*
G03*
X125500000Y-59999998I500001J1D01*
G01*
X132500000Y-59999998D02*
X131000000Y-59999999D01*
X123000000Y-74999998D02*
X123000000Y-73499999D01*
X133000002Y-69499998D02*
G75*
G03*
X132500000Y-68999998I-500002J-2D01*
G01*
X125500000Y-68999998D02*
X127000000Y-68999999D01*
X134000000Y-49999998D02*
X132500000Y-49999998D01*
X124000000Y-49999998D02*
G75*
G03*
X123000000Y-50999998I-1J-999999D01*
G01*
X125500000Y-51999998D02*
X127000000Y-51999998D01*
X123000000Y-62499999D02*
X123000000Y-57999999D01*
X125000000Y-66499999D02*
G75*
G03*
X125500000Y-66999998I500000J1D01*
G01*
X124000000Y-49999998D02*
X125500000Y-49999998D01*
X125500000Y-61999998D02*
X127000000Y-61999999D01*
X125000000Y-53999999D02*
X125000000Y-52499998D01*
X127000000Y-51999998D02*
G75*
G03*
X127000000Y-49999998I0J1000000D01*
G01*
X125000000Y-66499999D02*
G75*
G03*
X123000000Y-66499999I-1000000J0D01*
G01*
X131000000Y-59999999D02*
G75*
G03*
X131000000Y-61999999I0J-1000000D01*
G01*
X125000000Y-59499998D02*
X125000000Y-57999999D01*
X131000000Y-73999999D02*
X132500000Y-73999998D01*
X127000000Y-68999999D02*
G75*
G03*
X127000000Y-66999999I0J1000000D01*
G01*
X131000000Y-51999998D02*
X132500000Y-51999998D01*
X123000000Y-53999999D02*
G75*
G03*
X125000000Y-53999999I1000000J0D01*
G01*
X125500000Y-73999998D02*
X127000000Y-73999999D01*
X125500000Y-66999998D02*
X127000000Y-66999999D01*
X133000002Y-52499998D02*
G75*
G03*
X132500000Y-51999998I-500002J-2D01*
G01*
X123000000Y-74999998D02*
G75*
G03*
X124000000Y-75999998I999999J-1D01*
G01*
X133000000Y-57999998D02*
X133000000Y-59499998D01*
X125500000Y-68999998D02*
G75*
G03*
X125000000Y-69499999I0J-500000D01*
G01*
X131000000Y-66999999D02*
G75*
G03*
X131000000Y-68999999I0J-1000000D01*
G01*
X127000000Y-61999999D02*
G75*
G03*
X127000000Y-59999999I0J1000000D01*
G01*
X125000000Y-57999999D02*
G75*
G03*
X123000000Y-57999999I-1000000J0D01*
G01*
X135000000Y-57999998D02*
G75*
G03*
X133000000Y-57999998I-1000000J0D01*
G01*
X127000000Y-59999999D02*
X125500000Y-59999998D01*
X134000000Y-76000000D02*
G75*
G03*
X135000000Y-74999998I0J1000000D01*
G01*
X133000000Y-53999998D02*
G75*
G03*
X135000000Y-53999998I1000000J0D01*
G01*
X123000000Y-62499999D02*
G75*
G03*
X125000000Y-62499999I1000000J0D01*
G01*
X127000000Y-75999999D02*
G75*
G03*
X127000000Y-73999999I0J1000000D01*
G01*
X133000000Y-53999998D02*
X133000000Y-52499998D01*
X133000000Y-62499998D02*
G75*
G03*
X135000000Y-62499998I1000000J0D01*
G01*
X125000000Y-73499999D02*
G75*
G03*
X123000000Y-73499999I-1000000J0D01*
G01*
X132500000Y-60000000D02*
G75*
G03*
X133000000Y-59499998I0J500000D01*
G01*
X133000000Y-69499998D02*
G75*
G03*
X135000000Y-69499998I1000000J0D01*
G01*
X131000000Y-73999999D02*
G75*
G03*
X131000000Y-75999999I0J-1000000D01*
G01*
X131000000Y-49999998D02*
G75*
G03*
X131000000Y-51999998I1J-1000000D01*
G01*
X135000000Y-74999998D02*
X135000000Y-73499998D01*
X125500000Y-49999998D02*
X127000000Y-49999998D01*
X133000002Y-62499998D02*
G75*
G03*
X132500000Y-61999998I-500002J-2D01*
G01*
X123000000Y-69499999D02*
G75*
G03*
X125000000Y-69499999I1000000J0D01*
G01*
X125500000Y-51999998D02*
G75*
G03*
X125000000Y-52499998I1J-500001D01*
G01*
X131000000Y-75999999D02*
X134000000Y-75999998D01*
X132500000Y-67000000D02*
G75*
G03*
X133000000Y-66499998I0J500000D01*
G01*
X132500000Y-61999998D02*
X131000000Y-61999999D01*
X135000000Y-69499998D02*
X135000000Y-66499998D01*
X132500000Y-74000000D02*
G75*
G03*
X133000000Y-73499998I0J500000D01*
G01*
X135000000Y-66499998D02*
G75*
G03*
X133000000Y-66499998I-1000000J0D01*
G01*
X135000000Y-124499999D02*
X135000000Y-122499999D01*
X132500000Y-122000000D02*
G75*
G03*
X133000000Y-121499999I0J500000D01*
G01*
X132500000Y-123999999D02*
X131000000Y-124000000D01*
X133000001Y-124499999D02*
G75*
G03*
X132500000Y-123999999I-500001J-1D01*
G01*
X125500000Y-123999999D02*
X127000000Y-124000000D01*
X131000000Y-111999999D02*
X132500000Y-111999999D01*
X133000001Y-114499999D02*
G75*
G03*
X132500000Y-113999999I-500001J-1D01*
G01*
X125500000Y-113999999D02*
X127000000Y-113999999D01*
X125000000Y-121499999D02*
G75*
G03*
X125500000Y-121999999I500001J1D01*
G01*
X123000000Y-124500000D02*
X123000000Y-120000000D01*
X125500000Y-113999999D02*
G75*
G03*
X125000000Y-114499999I1J-500001D01*
G01*
X125000000Y-116000000D02*
X125000000Y-114499999D01*
X132500000Y-121999999D02*
X131000000Y-122000000D01*
X125500000Y-111999999D02*
X127000000Y-111999999D01*
X133000000Y-115999999D02*
X133000000Y-114499999D01*
X125000000Y-121499999D02*
X125000000Y-120000000D01*
X133000000Y-119999999D02*
X133000000Y-121499999D01*
X135000000Y-122499999D02*
X135000000Y-119999999D01*
X131000000Y-113999999D02*
X132500000Y-113999999D01*
X127000000Y-122000000D02*
X125500000Y-121999999D01*
X132500000Y-128999999D02*
X131000000Y-129000000D01*
X123000000Y-131500000D02*
X123000000Y-128500000D01*
X125500000Y-128999999D02*
X127000000Y-129000000D01*
X125500000Y-130999999D02*
G75*
G03*
X125000000Y-131500000I0J-500000D01*
G01*
X125000000Y-128500000D02*
G75*
G03*
X125500000Y-128999999I500000J1D01*
G01*
X132500000Y-130999999D02*
X131000000Y-131000000D01*
X133000001Y-131499999D02*
G75*
G03*
X132500000Y-130999999I-500001J-1D01*
G01*
X125500000Y-135999999D02*
X127000000Y-136000000D01*
X125000000Y-135500000D02*
G75*
G03*
X125500000Y-135999999I500000J1D01*
G01*
X131000000Y-138000000D02*
X134000000Y-137999999D01*
X135000000Y-136999999D02*
X135000000Y-135499999D01*
X135000000Y-131499999D02*
X135000000Y-128499999D01*
X134000000Y-138000000D02*
G75*
G03*
X135000000Y-136999999I0J1000000D01*
G01*
X131000000Y-136000000D02*
X132500000Y-135999999D01*
X123000000Y-136999999D02*
X123000000Y-135500000D01*
X124000000Y-137999999D02*
X127000000Y-138000000D01*
X125500000Y-123999999D02*
G75*
G03*
X125000000Y-124500000I0J-500000D01*
G01*
X125500000Y-130999999D02*
X127000000Y-131000000D01*
X132500000Y-136000000D02*
G75*
G03*
X133000000Y-135499999I0J500000D01*
G01*
X132500000Y-129000000D02*
G75*
G03*
X133000000Y-128499999I0J500000D01*
G01*
X123000000Y-136999999D02*
G75*
G03*
X124000000Y-137999999I999999J-1D01*
G01*
X133000000Y-115999999D02*
G75*
G03*
X135000000Y-115999999I1000000J0D01*
G01*
X133000000Y-124499999D02*
G75*
G03*
X135000000Y-124499999I1000000J0D01*
G01*
X135000000Y-135499999D02*
G75*
G03*
X133000000Y-135499999I-1000000J0D01*
G01*
X135000000Y-128499999D02*
G75*
G03*
X133000000Y-128499999I-1000000J0D01*
G01*
X135000000Y-119999999D02*
G75*
G03*
X133000000Y-119999999I-1000000J0D01*
G01*
X133000000Y-131499999D02*
G75*
G03*
X135000000Y-131499999I1000000J0D01*
G01*
X123000000Y-116000000D02*
G75*
G03*
X125000000Y-116000000I1000000J0D01*
G01*
X127000000Y-124000000D02*
G75*
G03*
X127000000Y-122000000I0J1000000D01*
G01*
X123000000Y-131500000D02*
G75*
G03*
X125000000Y-131500000I1000000J0D01*
G01*
X125000000Y-135500000D02*
G75*
G03*
X123000000Y-135500000I-1000000J0D01*
G01*
X125000000Y-120000000D02*
G75*
G03*
X123000000Y-120000000I-1000000J0D01*
G01*
X131000000Y-122000000D02*
G75*
G03*
X131000000Y-124000000I0J-1000000D01*
G01*
X131000000Y-129000000D02*
G75*
G03*
X131000000Y-131000000I0J-1000000D01*
G01*
X127000000Y-131000000D02*
G75*
G03*
X127000000Y-129000000I0J1000000D01*
G01*
X125000000Y-128500000D02*
G75*
G03*
X123000000Y-128500000I-1000000J0D01*
G01*
X127000000Y-138000000D02*
G75*
G03*
X127000000Y-136000000I0J1000000D01*
G01*
X131000000Y-136000000D02*
G75*
G03*
X131000000Y-138000000I0J-1000000D01*
G01*
X123000000Y-124500000D02*
G75*
G03*
X125000000Y-124500000I1000000J0D01*
G01*
X127000000Y-113999999D02*
G75*
G03*
X127000000Y-111999999I0J1000000D01*
G01*
X131000000Y-111999999D02*
G75*
G03*
X131000000Y-113999999I0J-1000000D01*
G01*
X187000000Y-143000000D02*
G75*
G03*
X192000000Y-138000000I0J5000000D01*
G01*
X192000000Y-50000000D02*
G75*
G03*
X187000000Y-45000000I-5000000J0D01*
G01*
X118000000Y-50999999D02*
X118000000Y-53999999D01*
X108000000Y-66500000D02*
G75*
G03*
X108500000Y-66999999I500000J1D01*
G01*
X107000000Y-49999999D02*
X108500000Y-49999999D01*
X118000000Y-62499999D02*
X118000000Y-60499999D01*
X108500000Y-51999999D02*
X110000000Y-51999999D01*
X115500000Y-66999999D02*
X114000000Y-67000000D01*
X108500000Y-61999999D02*
G75*
G03*
X108000000Y-62500000I0J-500000D01*
G01*
X117000000Y-49999999D02*
X115500000Y-49999999D01*
X108000000Y-59499999D02*
G75*
G03*
X108500000Y-59999999I500001J1D01*
G01*
X107000000Y-75999999D02*
X110000000Y-76000000D01*
X118000000Y-73499999D02*
G75*
G03*
X116000000Y-73499999I-1000000J0D01*
G01*
X106000000Y-62500000D02*
X106000000Y-58000000D01*
X116000001Y-69499999D02*
G75*
G03*
X115500000Y-68999999I-500001J-1D01*
G01*
X106000000Y-74999999D02*
X106000000Y-73500000D01*
X107000000Y-49999999D02*
G75*
G03*
X106000000Y-50999999I-1J-999999D01*
G01*
X118000001Y-50999999D02*
G75*
G03*
X117000000Y-49999999I-1000001J-1D01*
G01*
X114000000Y-49999999D02*
X115500000Y-49999999D01*
X115500000Y-68999999D02*
X114000000Y-69000000D01*
X108000000Y-73500000D02*
G75*
G03*
X108500000Y-73999999I500000J1D01*
G01*
X118000000Y-60499999D02*
X118000000Y-57999999D01*
X106000000Y-54000000D02*
X106000000Y-50999999D01*
X115500000Y-59999999D02*
X114000000Y-60000000D01*
X108500000Y-68999999D02*
X110000000Y-69000000D01*
X106000000Y-69500000D02*
X106000000Y-66500000D01*
X108500000Y-49999999D02*
X110000000Y-49999999D01*
X108500000Y-51999999D02*
G75*
G03*
X108000000Y-52499999I1J-500001D01*
G01*
X114000000Y-76000000D02*
X117000000Y-75999999D01*
X115500000Y-67000000D02*
G75*
G03*
X116000000Y-66499999I0J500000D01*
G01*
X114000000Y-74000000D02*
X115500000Y-73999999D01*
X115500000Y-61999999D02*
X114000000Y-62000000D01*
X114000000Y-51999999D02*
X115500000Y-51999999D01*
X110000000Y-60000000D02*
X108500000Y-59999999D01*
X117000000Y-76000000D02*
G75*
G03*
X118000000Y-74999999I0J1000000D01*
G01*
X108500000Y-73999999D02*
X110000000Y-74000000D01*
X108500000Y-66999999D02*
X110000000Y-67000000D01*
X116000000Y-53999999D02*
X116000000Y-52499999D01*
X118000000Y-69499999D02*
X118000000Y-66499999D01*
X115500000Y-74000000D02*
G75*
G03*
X116000000Y-73499999I0J500000D01*
G01*
X116000001Y-62499999D02*
G75*
G03*
X115500000Y-61999999I-500001J-1D01*
G01*
X118000000Y-66499999D02*
G75*
G03*
X116000000Y-66499999I-1000000J0D01*
G01*
X108000000Y-59499999D02*
X108000000Y-58000000D01*
X108500000Y-61999999D02*
X110000000Y-62000000D01*
X116000001Y-52499999D02*
G75*
G03*
X115500000Y-51999999I-500001J-1D01*
G01*
X106000000Y-74999999D02*
G75*
G03*
X107000000Y-75999999I999999J-1D01*
G01*
X118000000Y-74999999D02*
X118000000Y-73499999D01*
X116000000Y-62499999D02*
G75*
G03*
X118000000Y-62499999I1000000J0D01*
G01*
X108000000Y-54000000D02*
X108000000Y-52499999D01*
X116000000Y-57999999D02*
X116000000Y-59499999D01*
X116000000Y-53999999D02*
G75*
G03*
X118000000Y-53999999I1000000J0D01*
G01*
X108500000Y-68999999D02*
G75*
G03*
X108000000Y-69500000I0J-500000D01*
G01*
X115500000Y-60000000D02*
G75*
G03*
X116000000Y-59499999I0J500000D01*
G01*
X110000000Y-51999999D02*
G75*
G03*
X110000000Y-49999999I0J1000000D01*
G01*
X110000000Y-62000000D02*
G75*
G03*
X110000000Y-60000000I0J1000000D01*
G01*
X106000000Y-69500000D02*
G75*
G03*
X108000000Y-69500000I1000000J0D01*
G01*
X108000000Y-73500000D02*
G75*
G03*
X106000000Y-73500000I-1000000J0D01*
G01*
X108000000Y-58000000D02*
G75*
G03*
X106000000Y-58000000I-1000000J0D01*
G01*
X110000000Y-69000000D02*
G75*
G03*
X110000000Y-67000000I0J1000000D01*
G01*
X108000000Y-66500000D02*
G75*
G03*
X106000000Y-66500000I-1000000J0D01*
G01*
X110000000Y-76000000D02*
G75*
G03*
X110000000Y-74000000I0J1000000D01*
G01*
X114000000Y-74000000D02*
G75*
G03*
X114000000Y-76000000I0J-1000000D01*
G01*
X106000000Y-62500000D02*
G75*
G03*
X108000000Y-62500000I1000000J0D01*
G01*
X114000000Y-49999999D02*
G75*
G03*
X114000000Y-51999999I1J-1000000D01*
G01*
X114000000Y-60000000D02*
G75*
G03*
X114000000Y-62000000I0J-1000000D01*
G01*
X118000000Y-57999999D02*
G75*
G03*
X116000000Y-57999999I-1000000J0D01*
G01*
X116000000Y-69499999D02*
G75*
G03*
X118000000Y-69499999I1000000J0D01*
G01*
X106000000Y-54000000D02*
G75*
G03*
X108000000Y-54000000I1000000J0D01*
G01*
X114000000Y-67000000D02*
G75*
G03*
X114000000Y-69000000I0J-1000000D01*
G01*
X118000001Y-81999999D02*
G75*
G03*
X117000000Y-80999999I-1000001J-1D01*
G01*
X106000000Y-85000000D02*
X106000000Y-81999999D01*
X118000000Y-81999999D02*
X118000000Y-84999999D01*
X107000000Y-80999999D02*
X108500000Y-80999999D01*
X107000000Y-80999999D02*
G75*
G03*
X106000000Y-81999999I-1J-999999D01*
G01*
X117000000Y-80999999D02*
X115500000Y-80999999D01*
X118000000Y-93499999D02*
X118000000Y-91499999D01*
X115500000Y-91000000D02*
G75*
G03*
X116000000Y-90499999I0J500000D01*
G01*
X115500000Y-92999999D02*
X114000000Y-93000000D01*
X116000001Y-93499999D02*
G75*
G03*
X115500000Y-92999999I-500001J-1D01*
G01*
X108500000Y-92999999D02*
X110000000Y-93000000D01*
X114000000Y-80999999D02*
X115500000Y-80999999D01*
X116000001Y-83499999D02*
G75*
G03*
X115500000Y-82999999I-500001J-1D01*
G01*
X108500000Y-82999999D02*
X110000000Y-82999999D01*
X108000000Y-90499999D02*
G75*
G03*
X108500000Y-90999999I500001J1D01*
G01*
X106000000Y-93500000D02*
X106000000Y-89000000D01*
X108500000Y-82999999D02*
G75*
G03*
X108000000Y-83499999I1J-500001D01*
G01*
X108000000Y-85000000D02*
X108000000Y-83499999D01*
X115500000Y-90999999D02*
X114000000Y-91000000D01*
X108500000Y-80999999D02*
X110000000Y-80999999D01*
X116000000Y-84999999D02*
X116000000Y-83499999D01*
X108000000Y-90499999D02*
X108000000Y-89000000D01*
X116000000Y-88999999D02*
X116000000Y-90499999D01*
X118000000Y-91499999D02*
X118000000Y-88999999D01*
X114000000Y-82999999D02*
X115500000Y-82999999D01*
X110000000Y-91000000D02*
X108500000Y-90999999D01*
X115500000Y-97999999D02*
X114000000Y-98000000D01*
X106000000Y-100500000D02*
X106000000Y-97500000D01*
X108500000Y-97999999D02*
X110000000Y-98000000D01*
X108500000Y-99999999D02*
G75*
G03*
X108000000Y-100500000I0J-500000D01*
G01*
X108000000Y-97500000D02*
G75*
G03*
X108500000Y-97999999I500000J1D01*
G01*
X115500000Y-99999999D02*
X114000000Y-100000000D01*
X116000001Y-100499999D02*
G75*
G03*
X115500000Y-99999999I-500001J-1D01*
G01*
X108500000Y-104999999D02*
X110000000Y-105000000D01*
X108000000Y-104500000D02*
G75*
G03*
X108500000Y-104999999I500000J1D01*
G01*
X114000000Y-107000000D02*
X117000000Y-106999999D01*
X118000000Y-105999999D02*
X118000000Y-104499999D01*
X118000000Y-100499999D02*
X118000000Y-97499999D01*
X117000000Y-107000000D02*
G75*
G03*
X118000000Y-105999999I0J1000000D01*
G01*
X114000000Y-105000000D02*
X115500000Y-104999999D01*
X106000000Y-105999999D02*
X106000000Y-104500000D01*
X107000000Y-106999999D02*
X110000000Y-107000000D01*
X108500000Y-92999999D02*
G75*
G03*
X108000000Y-93500000I0J-500000D01*
G01*
X108500000Y-99999999D02*
X110000000Y-100000000D01*
X115500000Y-105000000D02*
G75*
G03*
X116000000Y-104499999I0J500000D01*
G01*
X115500000Y-98000000D02*
G75*
G03*
X116000000Y-97499999I0J500000D01*
G01*
X106000000Y-105999999D02*
G75*
G03*
X107000000Y-106999999I999999J-1D01*
G01*
X116000000Y-84999999D02*
G75*
G03*
X118000000Y-84999999I1000000J0D01*
G01*
X116000000Y-93499999D02*
G75*
G03*
X118000000Y-93499999I1000000J0D01*
G01*
X118000000Y-104499999D02*
G75*
G03*
X116000000Y-104499999I-1000000J0D01*
G01*
X118000000Y-97499999D02*
G75*
G03*
X116000000Y-97499999I-1000000J0D01*
G01*
X118000000Y-88999999D02*
G75*
G03*
X116000000Y-88999999I-1000000J0D01*
G01*
X116000000Y-100499999D02*
G75*
G03*
X118000000Y-100499999I1000000J0D01*
G01*
X106000000Y-85000000D02*
G75*
G03*
X108000000Y-85000000I1000000J0D01*
G01*
X110000000Y-93000000D02*
G75*
G03*
X110000000Y-91000000I0J1000000D01*
G01*
X106000000Y-100500000D02*
G75*
G03*
X108000000Y-100500000I1000000J0D01*
G01*
X108000000Y-104500000D02*
G75*
G03*
X106000000Y-104500000I-1000000J0D01*
G01*
X108000000Y-89000000D02*
G75*
G03*
X106000000Y-89000000I-1000000J0D01*
G01*
X114000000Y-91000000D02*
G75*
G03*
X114000000Y-93000000I0J-1000000D01*
G01*
X114000000Y-98000000D02*
G75*
G03*
X114000000Y-100000000I0J-1000000D01*
G01*
X110000000Y-100000000D02*
G75*
G03*
X110000000Y-98000000I0J1000000D01*
G01*
X108000000Y-97500000D02*
G75*
G03*
X106000000Y-97500000I-1000000J0D01*
G01*
X110000000Y-107000000D02*
G75*
G03*
X110000000Y-105000000I0J1000000D01*
G01*
X114000000Y-105000000D02*
G75*
G03*
X114000000Y-107000000I0J-1000000D01*
G01*
X106000000Y-93500000D02*
G75*
G03*
X108000000Y-93500000I1000000J0D01*
G01*
X110000000Y-82999999D02*
G75*
G03*
X110000000Y-80999999I0J1000000D01*
G01*
X114000000Y-81000001D02*
G75*
G03*
X114000000Y-82999999I0J-999999D01*
G01*
X117000000Y-112000000D02*
X115500000Y-112000000D01*
X118000000Y-113000000D02*
X118000000Y-116000000D01*
X118000000Y-113000000D02*
G75*
G03*
X117000000Y-112000000I-1000000J0D01*
G01*
X106000000Y-116000001D02*
X106000000Y-113000000D01*
X107000000Y-112000000D02*
X108500000Y-112000000D01*
X107000000Y-112000000D02*
G75*
G03*
X106000000Y-113000000I0J-1000000D01*
G01*
X108500000Y-112000000D02*
X110000000Y-112000000D01*
X114000000Y-112000000D02*
X115500000Y-112000000D01*
X114000000Y-114000000D02*
X115500000Y-114000000D01*
X116000000Y-116000000D02*
X116000000Y-114500000D01*
X116000000Y-114500000D02*
G75*
G03*
X115500000Y-114000000I-500000J0D01*
G01*
X108000000Y-116000001D02*
X108000000Y-114500000D01*
X108500000Y-114000000D02*
X110000000Y-114000000D01*
X108500000Y-114000000D02*
G75*
G03*
X108000000Y-114500000I0J-500000D01*
G01*
X106000000Y-124500001D02*
X106000000Y-120000001D01*
X108000000Y-121500000D02*
X108000000Y-120000001D01*
X110000000Y-122000001D02*
X108500000Y-122000000D01*
X108000000Y-121500000D02*
G75*
G03*
X108500000Y-122000000I500000J0D01*
G01*
X115500000Y-122000000D02*
X114000000Y-122000001D01*
X116000000Y-120000000D02*
X116000000Y-121500000D01*
X115500000Y-122000000D02*
G75*
G03*
X116000000Y-121500000I0J500000D01*
G01*
X118000000Y-122500000D02*
X118000000Y-120000000D01*
X118000000Y-124500000D02*
X118000000Y-122500000D01*
X115500000Y-124000000D02*
X114000000Y-124000001D01*
X116000000Y-124500000D02*
G75*
G03*
X115500000Y-124000000I-500000J0D01*
G01*
X108500000Y-124000000D02*
X110000000Y-124000001D01*
X108500000Y-124000000D02*
G75*
G03*
X108000000Y-124500001I0J-500000D01*
G01*
X106000000Y-131500001D02*
X106000000Y-128500001D01*
X108500000Y-129000000D02*
X110000000Y-129000001D01*
X108000000Y-128500001D02*
G75*
G03*
X108500000Y-129000000I500000J1D01*
G01*
X108500000Y-131000000D02*
X110000000Y-131000001D01*
X108500000Y-131000000D02*
G75*
G03*
X108000000Y-131500001I0J-500000D01*
G01*
X115500000Y-131000000D02*
X114000000Y-131000001D01*
X115500000Y-129000000D02*
X114000000Y-129000001D01*
X116000000Y-131500000D02*
G75*
G03*
X115500000Y-131000000I-500000J0D01*
G01*
X115500000Y-129000000D02*
G75*
G03*
X116000000Y-128500000I0J500000D01*
G01*
X118000000Y-131500000D02*
X118000000Y-128500000D01*
X118000000Y-137000000D02*
X118000000Y-135500000D01*
X114000000Y-138000001D02*
X117000000Y-138000000D01*
X117000000Y-138000000D02*
G75*
G03*
X118000000Y-137000000I1J999999D01*
G01*
X114000000Y-136000001D02*
X115500000Y-136000000D01*
X115500000Y-136000000D02*
G75*
G03*
X116000000Y-135500000I0J500000D01*
G01*
X106000000Y-137000000D02*
X106000000Y-135500001D01*
X108500000Y-136000000D02*
X110000000Y-136000001D01*
X107000000Y-138000000D02*
X110000000Y-138000001D01*
X108000000Y-135500001D02*
G75*
G03*
X106000000Y-135500001I-1000000J0D01*
G01*
X108000000Y-135500001D02*
G75*
G03*
X108500000Y-136000000I500000J1D01*
G01*
X106000000Y-137000000D02*
G75*
G03*
X107000000Y-138000000I1000000J0D01*
G01*
X110000000Y-138000001D02*
G75*
G03*
X110000000Y-136000001I0J1000000D01*
G01*
X114000000Y-136000001D02*
G75*
G03*
X114000000Y-138000001I0J-1000000D01*
G01*
X101000000Y-50000000D02*
X101000000Y-138000000D01*
X192000000Y-50000000D02*
X192000000Y-138000000D01*
X106000000Y-45000000D02*
G75*
G03*
X101000000Y-50000000I0J-5000000D01*
G01*
X106000000Y-45000000D02*
X187000000Y-45000000D01*
X116000000Y-131500000D02*
G75*
G03*
X118000000Y-131500000I1000000J0D01*
G01*
X118000000Y-135500000D02*
G75*
G03*
X116000000Y-135500000I-1000000J0D01*
G01*
X116000000Y-124500000D02*
G75*
G03*
X118000000Y-124500000I1000000J0D01*
G01*
X118000000Y-128500000D02*
G75*
G03*
X116000000Y-128500000I-1000000J0D01*
G01*
X116000000Y-116000000D02*
G75*
G03*
X118000000Y-116000000I1000000J0D01*
G01*
X118000000Y-120000000D02*
G75*
G03*
X116000000Y-120000000I-1000000J0D01*
G01*
X110000000Y-124000001D02*
G75*
G03*
X110000000Y-122000001I0J1000000D01*
G01*
X108000000Y-120000001D02*
G75*
G03*
X106000000Y-120000001I-1000000J0D01*
G01*
X106000000Y-131500001D02*
G75*
G03*
X108000000Y-131500001I1000000J0D01*
G01*
X106000000Y-116000001D02*
G75*
G03*
X108000000Y-116000001I1000000J0D01*
G01*
X108000000Y-128500001D02*
G75*
G03*
X106000000Y-128500001I-1000000J0D01*
G01*
X114000000Y-122000001D02*
G75*
G03*
X114000000Y-124000001I0J-1000000D01*
G01*
X106000000Y-124500001D02*
G75*
G03*
X108000000Y-124500001I1000000J0D01*
G01*
X114000000Y-129000001D02*
G75*
G03*
X114000000Y-131000001I0J-1000000D01*
G01*
X110000000Y-131000001D02*
G75*
G03*
X110000000Y-129000001I0J1000000D01*
G01*
X187000000Y-143000000D02*
X106000000Y-143000000D01*
X101000000Y-138000000D02*
G75*
G03*
X106000000Y-143000000I5000000J0D01*
G01*
X110000000Y-114000000D02*
G75*
G03*
X110000000Y-112000000I0J1000000D01*
G01*
X114000000Y-112000000D02*
G75*
G03*
X114000000Y-114000000I0J-1000000D01*
G01*
M02*
