M48
; DRILL file {KiCad (7.0.0)} date Sun Mar 26 22:08:05 2023
; FORMAT={-:-/ absolute / inch / decimal}
; #@! TF.CreationDate,2023-03-26T22:08:05+02:00
; #@! TF.GenerationSoftware,Kicad,Pcbnew,(7.0.0)
; #@! TF.FileFunction,NonPlated,1,2,NPTH
FMAT,2
INCH
; #@! TA.AperFunction,NonPlated,NPTH,ComponentDrill
T1C0.0197
; #@! TA.AperFunction,NonPlated,NPTH,ComponentDrill
T2C0.0315
; #@! TA.AperFunction,NonPlated,NPTH,ComponentDrill
T3C0.0390
%
G90
G05
T1
X4.1831Y-2.1752
X4.1831Y-2.2047
X4.1831Y-2.2343
X4.1831Y-2.5098
X4.1831Y-2.5394
X4.1831Y-2.5689
X4.1831Y-2.7854
X4.1831Y-2.815
X4.1831Y-2.8445
X4.1831Y-3.3957
X4.1831Y-3.4252
X4.1831Y-3.4547
X4.1831Y-3.7303
X4.1831Y-3.7598
X4.1831Y-3.7894
X4.1831Y-4.0059
X4.1831Y-4.0354
X4.1831Y-4.065
X4.1831Y-4.6161
X4.1831Y-4.6457
X4.1831Y-4.6752
X4.1831Y-4.9508
X4.1831Y-4.9803
X4.1831Y-5.0098
X4.1831Y-5.2264
X4.1831Y-5.2559
X4.1831Y-5.2854
X4.2421Y-2.1752
X4.2421Y-2.2047
X4.2421Y-2.2343
X4.2421Y-2.5098
X4.2421Y-2.5394
X4.2421Y-2.5689
X4.2421Y-2.7854
X4.2421Y-2.815
X4.2421Y-2.8445
X4.2421Y-3.3957
X4.2421Y-3.4252
X4.2421Y-3.4547
X4.2421Y-3.7303
X4.2421Y-3.7598
X4.2421Y-3.7894
X4.2421Y-4.0059
X4.2421Y-4.0354
X4.2421Y-4.065
X4.2421Y-4.6161
X4.2421Y-4.6457
X4.2421Y-4.6752
X4.2421Y-4.9508
X4.2421Y-4.9803
X4.2421Y-5.0098
X4.2421Y-5.2264
X4.2421Y-5.2559
X4.2421Y-5.2854
X4.3799Y-1.9783
X4.3799Y-2.0374
X4.3799Y-2.372
X4.3799Y-2.4311
X4.3799Y-2.6476
X4.3799Y-2.7067
X4.3799Y-2.9232
X4.3799Y-2.9823
X4.3799Y-3.1988
X4.3799Y-3.2579
X4.3799Y-3.5925
X4.3799Y-3.6516
X4.3799Y-3.8681
X4.3799Y-3.9272
X4.3799Y-4.1437
X4.3799Y-4.2028
X4.3799Y-4.4193
X4.3799Y-4.4783
X4.3799Y-4.813
X4.3799Y-4.872
X4.3799Y-5.0886
X4.3799Y-5.1476
X4.3799Y-5.3642
X4.3799Y-5.4232
X4.4094Y-1.9783
X4.4094Y-2.0374
X4.4094Y-2.372
X4.4094Y-2.4311
X4.4094Y-2.6476
X4.4094Y-2.7067
X4.4094Y-2.9232
X4.4094Y-2.9823
X4.4094Y-3.1988
X4.4094Y-3.2579
X4.4094Y-3.5925
X4.4094Y-3.6516
X4.4094Y-3.8681
X4.4094Y-3.9272
X4.4094Y-4.1437
X4.4094Y-4.2028
X4.4094Y-4.4193
X4.4094Y-4.4783
X4.4094Y-4.813
X4.4094Y-4.872
X4.4094Y-5.0886
X4.4094Y-5.1476
X4.4094Y-5.3642
X4.4094Y-5.4232
X4.439Y-1.9783
X4.439Y-2.0374
X4.439Y-2.372
X4.439Y-2.4311
X4.439Y-2.6476
X4.439Y-2.7067
X4.439Y-2.9232
X4.439Y-2.9823
X4.439Y-3.1988
X4.439Y-3.2579
X4.439Y-3.5925
X4.439Y-3.6516
X4.439Y-3.8681
X4.439Y-3.9272
X4.439Y-4.1437
X4.439Y-4.2028
X4.439Y-4.4193
X4.439Y-4.4783
X4.439Y-4.813
X4.439Y-4.872
X4.439Y-5.0886
X4.439Y-5.1476
X4.439Y-5.3642
X4.439Y-5.4232
X4.5768Y-2.1752
X4.5768Y-2.2047
X4.5768Y-2.2343
X4.5768Y-2.5098
X4.5768Y-2.5394
X4.5768Y-2.5689
X4.5768Y-2.7854
X4.5768Y-2.815
X4.5768Y-2.8445
X4.5768Y-3.3957
X4.5768Y-3.4252
X4.5768Y-3.4547
X4.5768Y-3.7303
X4.5768Y-3.7598
X4.5768Y-3.7894
X4.5768Y-4.0059
X4.5768Y-4.0354
X4.5768Y-4.065
X4.5768Y-4.6161
X4.5768Y-4.6457
X4.5768Y-4.6752
X4.5768Y-4.9508
X4.5768Y-4.9803
X4.5768Y-5.0098
X4.5768Y-5.2264
X4.5768Y-5.2559
X4.5768Y-5.2854
X4.6358Y-2.1752
X4.6358Y-2.2047
X4.6358Y-2.2343
X4.6358Y-2.5098
X4.6358Y-2.5394
X4.6358Y-2.5689
X4.6358Y-2.7854
X4.6358Y-2.815
X4.6358Y-2.8445
X4.6358Y-3.3957
X4.6358Y-3.4252
X4.6358Y-3.4547
X4.6358Y-3.7303
X4.6358Y-3.7598
X4.6358Y-3.7894
X4.6358Y-4.0059
X4.6358Y-4.0354
X4.6358Y-4.065
X4.6358Y-4.6161
X4.6358Y-4.6457
X4.6358Y-4.6752
X4.6358Y-4.9508
X4.6358Y-4.9803
X4.6358Y-5.0098
X4.6358Y-5.2264
X4.6358Y-5.2559
X4.6358Y-5.2854
X4.8524Y-2.1752
X4.8524Y-2.2047
X4.8524Y-2.2343
X4.8524Y-2.5098
X4.8524Y-2.5394
X4.8524Y-2.5689
X4.8524Y-2.7854
X4.8524Y-2.815
X4.8524Y-2.8445
X4.8524Y-3.3957
X4.8524Y-3.4252
X4.8524Y-3.4547
X4.8524Y-3.7303
X4.8524Y-3.7598
X4.8524Y-3.7894
X4.8524Y-4.0059
X4.8524Y-4.0354
X4.8524Y-4.065
X4.8524Y-4.6161
X4.8524Y-4.6457
X4.8524Y-4.6752
X4.8524Y-4.9508
X4.8524Y-4.9803
X4.8524Y-5.0098
X4.8524Y-5.2264
X4.8524Y-5.2559
X4.8524Y-5.2854
X4.9114Y-2.1752
X4.9114Y-2.2047
X4.9114Y-2.2343
X4.9114Y-2.5098
X4.9114Y-2.5394
X4.9114Y-2.5689
X4.9114Y-2.7854
X4.9114Y-2.815
X4.9114Y-2.8445
X4.9114Y-3.3957
X4.9114Y-3.4252
X4.9114Y-3.4547
X4.9114Y-3.7303
X4.9114Y-3.7598
X4.9114Y-3.7894
X4.9114Y-4.0059
X4.9114Y-4.0354
X4.9114Y-4.065
X4.9114Y-4.6161
X4.9114Y-4.6457
X4.9114Y-4.6752
X4.9114Y-4.9508
X4.9114Y-4.9803
X4.9114Y-5.0098
X4.9114Y-5.2264
X4.9114Y-5.2559
X4.9114Y-5.2854
X5.0492Y-1.9783
X5.0492Y-2.0374
X5.0492Y-2.372
X5.0492Y-2.4311
X5.0492Y-2.6476
X5.0492Y-2.7067
X5.0492Y-2.9232
X5.0492Y-2.9823
X5.0492Y-3.1988
X5.0492Y-3.2579
X5.0492Y-3.5925
X5.0492Y-3.6516
X5.0492Y-3.8681
X5.0492Y-3.9272
X5.0492Y-4.1437
X5.0492Y-4.2028
X5.0492Y-4.4193
X5.0492Y-4.4783
X5.0492Y-4.813
X5.0492Y-4.872
X5.0492Y-5.0886
X5.0492Y-5.1476
X5.0492Y-5.3642
X5.0492Y-5.4232
X5.0787Y-1.9783
X5.0787Y-2.0374
X5.0787Y-2.372
X5.0787Y-2.4311
X5.0787Y-2.6476
X5.0787Y-2.7067
X5.0787Y-2.9232
X5.0787Y-2.9823
X5.0787Y-3.1988
X5.0787Y-3.2579
X5.0787Y-3.5925
X5.0787Y-3.6516
X5.0787Y-3.8681
X5.0787Y-3.9272
X5.0787Y-4.1437
X5.0787Y-4.2028
X5.0787Y-4.4193
X5.0787Y-4.4783
X5.0787Y-4.813
X5.0787Y-4.872
X5.0787Y-5.0886
X5.0787Y-5.1476
X5.0787Y-5.3642
X5.0787Y-5.4232
X5.1083Y-1.9783
X5.1083Y-2.0374
X5.1083Y-2.372
X5.1083Y-2.4311
X5.1083Y-2.6476
X5.1083Y-2.7067
X5.1083Y-2.9232
X5.1083Y-2.9823
X5.1083Y-3.1988
X5.1083Y-3.2579
X5.1083Y-3.5925
X5.1083Y-3.6516
X5.1083Y-3.8681
X5.1083Y-3.9272
X5.1083Y-4.1437
X5.1083Y-4.2028
X5.1083Y-4.4193
X5.1083Y-4.4783
X5.1083Y-4.813
X5.1083Y-4.872
X5.1083Y-5.0886
X5.1083Y-5.1476
X5.1083Y-5.3642
X5.1083Y-5.4232
X5.2461Y-2.1752
X5.2461Y-2.2047
X5.2461Y-2.2343
X5.2461Y-2.5098
X5.2461Y-2.5394
X5.2461Y-2.5689
X5.2461Y-2.7854
X5.2461Y-2.815
X5.2461Y-2.8445
X5.2461Y-3.3957
X5.2461Y-3.4252
X5.2461Y-3.4547
X5.2461Y-3.7303
X5.2461Y-3.7598
X5.2461Y-3.7894
X5.2461Y-4.0059
X5.2461Y-4.0354
X5.2461Y-4.065
X5.2461Y-4.6161
X5.2461Y-4.6457
X5.2461Y-4.6752
X5.2461Y-4.9508
X5.2461Y-4.9803
X5.2461Y-5.0098
X5.2461Y-5.2264
X5.2461Y-5.2559
X5.2461Y-5.2854
X5.3051Y-2.1752
X5.3051Y-2.2047
X5.3051Y-2.2343
X5.3051Y-2.5098
X5.3051Y-2.5394
X5.3051Y-2.5689
X5.3051Y-2.7854
X5.3051Y-2.815
X5.3051Y-2.8445
X5.3051Y-3.3957
X5.3051Y-3.4252
X5.3051Y-3.4547
X5.3051Y-3.7303
X5.3051Y-3.7598
X5.3051Y-3.7894
X5.3051Y-4.0059
X5.3051Y-4.0354
X5.3051Y-4.065
X5.3051Y-4.6161
X5.3051Y-4.6457
X5.3051Y-4.6752
X5.3051Y-4.9508
X5.3051Y-4.9803
X5.3051Y-5.0098
X5.3051Y-5.2264
X5.3051Y-5.2559
X5.3051Y-5.2854
X5.5217Y-2.1752
X5.5217Y-2.2047
X5.5217Y-2.2343
X5.5217Y-2.5098
X5.5217Y-2.5394
X5.5217Y-2.5689
X5.5217Y-2.7854
X5.5217Y-2.815
X5.5217Y-2.8445
X5.5217Y-3.3957
X5.5217Y-3.4252
X5.5217Y-3.4547
X5.5217Y-3.7303
X5.5217Y-3.7598
X5.5217Y-3.7894
X5.5217Y-4.0059
X5.5217Y-4.0354
X5.5217Y-4.065
X5.5217Y-4.6161
X5.5217Y-4.6457
X5.5217Y-4.6752
X5.5217Y-4.9508
X5.5217Y-4.9803
X5.5217Y-5.0098
X5.5217Y-5.2264
X5.5217Y-5.2559
X5.5217Y-5.2854
X5.5807Y-2.1752
X5.5807Y-2.2047
X5.5807Y-2.2343
X5.5807Y-2.5098
X5.5807Y-2.5394
X5.5807Y-2.5689
X5.5807Y-2.7854
X5.5807Y-2.815
X5.5807Y-2.8445
X5.5807Y-3.3957
X5.5807Y-3.4252
X5.5807Y-3.4547
X5.5807Y-3.7303
X5.5807Y-3.7598
X5.5807Y-3.7894
X5.5807Y-4.0059
X5.5807Y-4.0354
X5.5807Y-4.065
X5.5807Y-4.6161
X5.5807Y-4.6457
X5.5807Y-4.6752
X5.5807Y-4.9508
X5.5807Y-4.9803
X5.5807Y-5.0098
X5.5807Y-5.2264
X5.5807Y-5.2559
X5.5807Y-5.2854
X5.7185Y-1.9783
X5.7185Y-2.0374
X5.7185Y-2.372
X5.7185Y-2.4311
X5.7185Y-2.6476
X5.7185Y-2.7067
X5.7185Y-2.9232
X5.7185Y-2.9823
X5.7185Y-3.1988
X5.7185Y-3.2579
X5.7185Y-3.5925
X5.7185Y-3.6516
X5.7185Y-3.8681
X5.7185Y-3.9272
X5.7185Y-4.1437
X5.7185Y-4.2028
X5.7185Y-4.4193
X5.7185Y-4.4783
X5.7185Y-4.813
X5.7185Y-4.872
X5.7185Y-5.0886
X5.7185Y-5.1476
X5.7185Y-5.3642
X5.7185Y-5.4232
X5.748Y-1.9783
X5.748Y-2.0374
X5.748Y-2.372
X5.748Y-2.4311
X5.748Y-2.6476
X5.748Y-2.7067
X5.748Y-2.9232
X5.748Y-2.9823
X5.748Y-3.1988
X5.748Y-3.2579
X5.748Y-3.5925
X5.748Y-3.6516
X5.748Y-3.8681
X5.748Y-3.9272
X5.748Y-4.1437
X5.748Y-4.2028
X5.748Y-4.4193
X5.748Y-4.4783
X5.748Y-4.813
X5.748Y-4.872
X5.748Y-5.0886
X5.748Y-5.1476
X5.748Y-5.3642
X5.748Y-5.4232
X5.7776Y-1.9783
X5.7776Y-2.0374
X5.7776Y-2.372
X5.7776Y-2.4311
X5.7776Y-2.6476
X5.7776Y-2.7067
X5.7776Y-2.9232
X5.7776Y-2.9823
X5.7776Y-3.1988
X5.7776Y-3.2579
X5.7776Y-3.5925
X5.7776Y-3.6516
X5.7776Y-3.8681
X5.7776Y-3.9272
X5.7776Y-4.1437
X5.7776Y-4.2028
X5.7776Y-4.4193
X5.7776Y-4.4783
X5.7776Y-4.813
X5.7776Y-4.872
X5.7776Y-5.0886
X5.7776Y-5.1476
X5.7776Y-5.3642
X5.7776Y-5.4232
X5.9154Y-2.1752
X5.9154Y-2.2047
X5.9154Y-2.2343
X5.9154Y-2.5098
X5.9154Y-2.5394
X5.9154Y-2.5689
X5.9154Y-2.7854
X5.9154Y-2.815
X5.9154Y-2.8445
X5.9154Y-3.3957
X5.9154Y-3.4252
X5.9154Y-3.4547
X5.9154Y-3.7303
X5.9154Y-3.7598
X5.9154Y-3.7894
X5.9154Y-4.0059
X5.9154Y-4.0354
X5.9154Y-4.065
X5.9154Y-4.6161
X5.9154Y-4.6457
X5.9154Y-4.6752
X5.9154Y-4.9508
X5.9154Y-4.9803
X5.9154Y-5.0098
X5.9154Y-5.2264
X5.9154Y-5.2559
X5.9154Y-5.2854
X5.9744Y-2.1752
X5.9744Y-2.2047
X5.9744Y-2.2343
X5.9744Y-2.5098
X5.9744Y-2.5394
X5.9744Y-2.5689
X5.9744Y-2.7854
X5.9744Y-2.815
X5.9744Y-2.8445
X5.9744Y-3.3957
X5.9744Y-3.4252
X5.9744Y-3.4547
X5.9744Y-3.7303
X5.9744Y-3.7598
X5.9744Y-3.7894
X5.9744Y-4.0059
X5.9744Y-4.0354
X5.9744Y-4.065
X5.9744Y-4.6161
X5.9744Y-4.6457
X5.9744Y-4.6752
X5.9744Y-4.9508
X5.9744Y-4.9803
X5.9744Y-5.0098
X5.9744Y-5.2264
X5.9744Y-5.2559
X5.9744Y-5.2854
X6.1909Y-2.1752
X6.1909Y-2.2047
X6.1909Y-2.2343
X6.1909Y-2.5098
X6.1909Y-2.5394
X6.1909Y-2.5689
X6.1909Y-2.7854
X6.1909Y-2.815
X6.1909Y-2.8445
X6.1909Y-3.3957
X6.1909Y-3.4252
X6.1909Y-3.4547
X6.1909Y-3.7303
X6.1909Y-3.7598
X6.1909Y-3.7894
X6.1909Y-4.0059
X6.1909Y-4.0354
X6.1909Y-4.065
X6.1909Y-4.6161
X6.1909Y-4.6457
X6.1909Y-4.6752
X6.1909Y-4.9508
X6.1909Y-4.9803
X6.1909Y-5.0098
X6.1909Y-5.2264
X6.1909Y-5.2559
X6.1909Y-5.2854
X6.25Y-2.1752
X6.25Y-2.2047
X6.25Y-2.2343
X6.25Y-2.5098
X6.25Y-2.5394
X6.25Y-2.5689
X6.25Y-2.7854
X6.25Y-2.815
X6.25Y-2.8445
X6.25Y-3.3957
X6.25Y-3.4252
X6.25Y-3.4547
X6.25Y-3.7303
X6.25Y-3.7598
X6.25Y-3.7894
X6.25Y-4.0059
X6.25Y-4.0354
X6.25Y-4.065
X6.25Y-4.6161
X6.25Y-4.6457
X6.25Y-4.6752
X6.25Y-4.9508
X6.25Y-4.9803
X6.25Y-5.0098
X6.25Y-5.2264
X6.25Y-5.2559
X6.25Y-5.2854
X6.3878Y-1.9783
X6.3878Y-2.0374
X6.3878Y-2.372
X6.3878Y-2.4311
X6.3878Y-2.6476
X6.3878Y-2.7067
X6.3878Y-2.9232
X6.3878Y-2.9823
X6.3878Y-3.1988
X6.3878Y-3.2579
X6.3878Y-3.5925
X6.3878Y-3.6516
X6.3878Y-3.8681
X6.3878Y-3.9272
X6.3878Y-4.1437
X6.3878Y-4.2028
X6.3878Y-4.4193
X6.3878Y-4.4783
X6.3878Y-4.813
X6.3878Y-4.872
X6.3878Y-5.0886
X6.3878Y-5.1476
X6.3878Y-5.3642
X6.3878Y-5.4232
X6.4173Y-1.9783
X6.4173Y-2.0374
X6.4173Y-2.372
X6.4173Y-2.4311
X6.4173Y-2.6476
X6.4173Y-2.7067
X6.4173Y-2.9232
X6.4173Y-2.9823
X6.4173Y-3.1988
X6.4173Y-3.2579
X6.4173Y-3.5925
X6.4173Y-3.6516
X6.4173Y-3.8681
X6.4173Y-3.9272
X6.4173Y-4.1437
X6.4173Y-4.2028
X6.4173Y-4.4193
X6.4173Y-4.4783
X6.4173Y-4.813
X6.4173Y-4.872
X6.4173Y-5.0886
X6.4173Y-5.1476
X6.4173Y-5.3642
X6.4173Y-5.4232
X6.4469Y-1.9783
X6.4469Y-2.0374
X6.4469Y-2.372
X6.4469Y-2.4311
X6.4469Y-2.6476
X6.4469Y-2.7067
X6.4469Y-2.9232
X6.4469Y-2.9823
X6.4469Y-3.1988
X6.4469Y-3.2579
X6.4469Y-3.5925
X6.4469Y-3.6516
X6.4469Y-3.8681
X6.4469Y-3.9272
X6.4469Y-4.1437
X6.4469Y-4.2028
X6.4469Y-4.4193
X6.4469Y-4.4783
X6.4469Y-4.813
X6.4469Y-4.872
X6.4469Y-5.0886
X6.4469Y-5.1476
X6.4469Y-5.3642
X6.4469Y-5.4232
X6.5846Y-2.1752
X6.5846Y-2.2047
X6.5846Y-2.2343
X6.5846Y-2.5098
X6.5846Y-2.5394
X6.5846Y-2.5689
X6.5846Y-2.7854
X6.5846Y-2.815
X6.5846Y-2.8445
X6.5846Y-3.3957
X6.5846Y-3.4252
X6.5846Y-3.4547
X6.5846Y-3.7303
X6.5846Y-3.7598
X6.5846Y-3.7894
X6.5846Y-4.0059
X6.5846Y-4.0354
X6.5846Y-4.065
X6.5846Y-4.6161
X6.5846Y-4.6457
X6.5846Y-4.6752
X6.5846Y-4.9508
X6.5846Y-4.9803
X6.5846Y-5.0098
X6.5846Y-5.2264
X6.5846Y-5.2559
X6.5846Y-5.2854
X6.6437Y-2.1752
X6.6437Y-2.2047
X6.6437Y-2.2343
X6.6437Y-2.5098
X6.6437Y-2.5394
X6.6437Y-2.5689
X6.6437Y-2.7854
X6.6437Y-2.815
X6.6437Y-2.8445
X6.6437Y-3.3957
X6.6437Y-3.4252
X6.6437Y-3.4547
X6.6437Y-3.7303
X6.6437Y-3.7598
X6.6437Y-3.7894
X6.6437Y-4.0059
X6.6437Y-4.0354
X6.6437Y-4.065
X6.6437Y-4.6161
X6.6437Y-4.6457
X6.6437Y-4.6752
X6.6437Y-4.9508
X6.6437Y-4.9803
X6.6437Y-5.0098
X6.6437Y-5.2264
X6.6437Y-5.2559
X6.6437Y-5.2854
X6.8602Y-2.1752
X6.8602Y-2.2047
X6.8602Y-2.2343
X6.8602Y-2.5098
X6.8602Y-2.5394
X6.8602Y-2.5689
X6.8602Y-2.7854
X6.8602Y-2.815
X6.8602Y-2.8445
X6.8602Y-3.3957
X6.8602Y-3.4252
X6.8602Y-3.4547
X6.8602Y-3.7303
X6.8602Y-3.7598
X6.8602Y-3.7894
X6.8602Y-4.0059
X6.8602Y-4.0354
X6.8602Y-4.065
X6.8602Y-4.6161
X6.8602Y-4.6457
X6.8602Y-4.6752
X6.8602Y-4.9508
X6.8602Y-4.9803
X6.8602Y-5.0098
X6.8602Y-5.2264
X6.8602Y-5.2559
X6.8602Y-5.2854
X6.9193Y-2.1752
X6.9193Y-2.2047
X6.9193Y-2.2343
X6.9193Y-2.5098
X6.9193Y-2.5394
X6.9193Y-2.5689
X6.9193Y-2.7854
X6.9193Y-2.815
X6.9193Y-2.8445
X6.9193Y-3.3957
X6.9193Y-3.4252
X6.9193Y-3.4547
X6.9193Y-3.7303
X6.9193Y-3.7598
X6.9193Y-3.7894
X6.9193Y-4.0059
X6.9193Y-4.0354
X6.9193Y-4.065
X6.9193Y-4.6161
X6.9193Y-4.6457
X6.9193Y-4.6752
X6.9193Y-4.9508
X6.9193Y-4.9803
X6.9193Y-5.0098
X6.9193Y-5.2264
X6.9193Y-5.2559
X6.9193Y-5.2854
X7.0571Y-1.9783
X7.0571Y-2.0374
X7.0571Y-2.372
X7.0571Y-2.4311
X7.0571Y-2.6476
X7.0571Y-2.7067
X7.0571Y-2.9232
X7.0571Y-2.9823
X7.0571Y-3.1988
X7.0571Y-3.2579
X7.0571Y-3.5925
X7.0571Y-3.6516
X7.0571Y-3.8681
X7.0571Y-3.9272
X7.0571Y-4.1437
X7.0571Y-4.2028
X7.0571Y-4.4193
X7.0571Y-4.4783
X7.0571Y-4.813
X7.0571Y-4.872
X7.0571Y-5.0886
X7.0571Y-5.1476
X7.0571Y-5.3642
X7.0571Y-5.4232
X7.0866Y-1.9783
X7.0866Y-2.0374
X7.0866Y-2.372
X7.0866Y-2.4311
X7.0866Y-2.6476
X7.0866Y-2.7067
X7.0866Y-2.9232
X7.0866Y-2.9823
X7.0866Y-3.1988
X7.0866Y-3.2579
X7.0866Y-3.5925
X7.0866Y-3.6516
X7.0866Y-3.8681
X7.0866Y-3.9272
X7.0866Y-4.1437
X7.0866Y-4.2028
X7.0866Y-4.4193
X7.0866Y-4.4783
X7.0866Y-4.813
X7.0866Y-4.872
X7.0866Y-5.0886
X7.0866Y-5.1476
X7.0866Y-5.3642
X7.0866Y-5.4232
X7.1161Y-1.9783
X7.1161Y-2.0374
X7.1161Y-2.372
X7.1161Y-2.4311
X7.1161Y-2.6476
X7.1161Y-2.7067
X7.1161Y-2.9232
X7.1161Y-2.9823
X7.1161Y-3.1988
X7.1161Y-3.2579
X7.1161Y-3.5925
X7.1161Y-3.6516
X7.1161Y-3.8681
X7.1161Y-3.9272
X7.1161Y-4.1437
X7.1161Y-4.2028
X7.1161Y-4.4193
X7.1161Y-4.4783
X7.1161Y-4.813
X7.1161Y-4.872
X7.1161Y-5.0886
X7.1161Y-5.1476
X7.1161Y-5.3642
X7.1161Y-5.4232
X7.2539Y-2.1752
X7.2539Y-2.2047
X7.2539Y-2.2343
X7.2539Y-2.5098
X7.2539Y-2.5394
X7.2539Y-2.5689
X7.2539Y-2.7854
X7.2539Y-2.815
X7.2539Y-2.8445
X7.2539Y-3.3957
X7.2539Y-3.4252
X7.2539Y-3.4547
X7.2539Y-3.7303
X7.2539Y-3.7598
X7.2539Y-3.7894
X7.2539Y-4.0059
X7.2539Y-4.0354
X7.2539Y-4.065
X7.2539Y-4.6161
X7.2539Y-4.6457
X7.2539Y-4.6752
X7.2539Y-4.9508
X7.2539Y-4.9803
X7.2539Y-5.0098
X7.2539Y-5.2264
X7.2539Y-5.2559
X7.2539Y-5.2854
X7.313Y-2.1752
X7.313Y-2.2047
X7.313Y-2.2343
X7.313Y-2.5098
X7.313Y-2.5394
X7.313Y-2.5689
X7.313Y-2.7854
X7.313Y-2.815
X7.313Y-2.8445
X7.313Y-3.3957
X7.313Y-3.4252
X7.313Y-3.4547
X7.313Y-3.7303
X7.313Y-3.7598
X7.313Y-3.7894
X7.313Y-4.0059
X7.313Y-4.0354
X7.313Y-4.065
X7.313Y-4.6161
X7.313Y-4.6457
X7.313Y-4.6752
X7.313Y-4.9508
X7.313Y-4.9803
X7.313Y-5.0098
X7.313Y-5.2264
X7.313Y-5.2559
X7.313Y-5.2854
T2
X4.3594Y-2.5144
X4.3594Y-2.5644
X4.3594Y-2.79
X4.3594Y-2.84
X4.3594Y-3.7348
X4.3594Y-3.7848
X4.3594Y-4.0104
X4.3594Y-4.0604
X4.3594Y-4.9553
X4.3594Y-5.0053
X4.3594Y-5.2309
X4.3594Y-5.2809
X4.4094Y-2.5144
X4.4094Y-2.5644
X4.4094Y-2.79
X4.4094Y-2.84
X4.4094Y-3.7348
X4.4094Y-3.7848
X4.4094Y-4.0104
X4.4094Y-4.0604
X4.4094Y-4.9553
X4.4094Y-5.0053
X4.4094Y-5.2309
X4.4094Y-5.2809
X4.4594Y-2.5144
X4.4594Y-2.5644
X4.4594Y-2.79
X4.4594Y-2.84
X4.4594Y-3.7348
X4.4594Y-3.7848
X4.4594Y-4.0104
X4.4594Y-4.0604
X4.4594Y-4.9553
X4.4594Y-5.0053
X4.4594Y-5.2309
X4.4594Y-5.2809
X5.0287Y-2.5144
X5.0287Y-2.5644
X5.0287Y-2.79
X5.0287Y-2.84
X5.0287Y-3.7348
X5.0287Y-3.7848
X5.0287Y-4.0104
X5.0287Y-4.0604
X5.0287Y-4.9553
X5.0287Y-5.0053
X5.0287Y-5.2309
X5.0287Y-5.2809
X5.0787Y-2.5144
X5.0787Y-2.5644
X5.0787Y-2.79
X5.0787Y-2.84
X5.0787Y-3.7348
X5.0787Y-3.7848
X5.0787Y-4.0104
X5.0787Y-4.0604
X5.0787Y-4.9553
X5.0787Y-5.0053
X5.0787Y-5.2309
X5.0787Y-5.2809
X5.1287Y-2.5144
X5.1287Y-2.5644
X5.1287Y-2.79
X5.1287Y-2.84
X5.1287Y-3.7348
X5.1287Y-3.7848
X5.1287Y-4.0104
X5.1287Y-4.0604
X5.1287Y-4.9553
X5.1287Y-5.0053
X5.1287Y-5.2309
X5.1287Y-5.2809
X5.698Y-2.5144
X5.698Y-2.5644
X5.698Y-2.79
X5.698Y-2.84
X5.698Y-3.7348
X5.698Y-3.7848
X5.698Y-4.0104
X5.698Y-4.0604
X5.698Y-4.9553
X5.698Y-5.0053
X5.698Y-5.2309
X5.698Y-5.2809
X5.748Y-2.5144
X5.748Y-2.5644
X5.748Y-2.79
X5.748Y-2.84
X5.748Y-3.7348
X5.748Y-3.7848
X5.748Y-4.0104
X5.748Y-4.0604
X5.748Y-4.9553
X5.748Y-5.0053
X5.748Y-5.2309
X5.748Y-5.2809
X5.798Y-2.5144
X5.798Y-2.5644
X5.798Y-2.79
X5.798Y-2.84
X5.798Y-3.7348
X5.798Y-3.7848
X5.798Y-4.0104
X5.798Y-4.0604
X5.798Y-4.9553
X5.798Y-5.0053
X5.798Y-5.2309
X5.798Y-5.2809
X6.3673Y-2.5144
X6.3673Y-2.5644
X6.3673Y-2.79
X6.3673Y-2.84
X6.3673Y-3.7348
X6.3673Y-3.7848
X6.3673Y-4.0104
X6.3673Y-4.0604
X6.3673Y-4.9553
X6.3673Y-5.0053
X6.3673Y-5.2309
X6.3673Y-5.2809
X6.4173Y-2.5144
X6.4173Y-2.5644
X6.4173Y-2.79
X6.4173Y-2.84
X6.4173Y-3.7348
X6.4173Y-3.7848
X6.4173Y-4.0104
X6.4173Y-4.0604
X6.4173Y-4.9553
X6.4173Y-5.0053
X6.4173Y-5.2309
X6.4173Y-5.2809
X6.4673Y-2.5144
X6.4673Y-2.5644
X6.4673Y-2.79
X6.4673Y-2.84
X6.4673Y-3.7348
X6.4673Y-3.7848
X6.4673Y-4.0104
X6.4673Y-4.0604
X6.4673Y-4.9553
X6.4673Y-5.0053
X6.4673Y-5.2309
X6.4673Y-5.2809
X7.0366Y-2.5144
X7.0366Y-2.5644
X7.0366Y-2.79
X7.0366Y-2.84
X7.0366Y-3.7348
X7.0366Y-3.7848
X7.0366Y-4.0104
X7.0366Y-4.0604
X7.0366Y-4.9553
X7.0366Y-5.0053
X7.0366Y-5.2309
X7.0366Y-5.2809
X7.0866Y-2.5144
X7.0866Y-2.5644
X7.0866Y-2.79
X7.0866Y-2.84
X7.0866Y-3.7348
X7.0866Y-3.7848
X7.0866Y-4.0104
X7.0866Y-4.0604
X7.0866Y-4.9553
X7.0866Y-5.0053
X7.0866Y-5.2309
X7.0866Y-5.2809
X7.1366Y-2.5144
X7.1366Y-2.5644
X7.1366Y-2.79
X7.1366Y-2.84
X7.1366Y-3.7348
X7.1366Y-3.7848
X7.1366Y-4.0104
X7.1366Y-4.0604
X7.1366Y-4.9553
X7.1366Y-5.0053
X7.1366Y-5.2309
X7.1366Y-5.2809
T3
X4.3094Y-2.1667
X4.3094Y-2.2467
X4.3094Y-2.5394
X4.3094Y-2.815
X4.3094Y-3.3872
X4.3094Y-3.4672
X4.3094Y-3.7598
X4.3094Y-4.0354
X4.3094Y-4.6076
X4.3094Y-4.6876
X4.3094Y-4.9803
X4.3094Y-5.2559
X4.5094Y-2.2067
X4.5094Y-2.4994
X4.5094Y-2.5794
X4.5094Y-2.775
X4.5094Y-2.855
X4.5094Y-3.4272
X4.5094Y-3.7198
X4.5094Y-3.7998
X4.5094Y-3.9954
X4.5094Y-4.0754
X4.5094Y-4.6476
X4.5094Y-4.9403
X4.5094Y-5.0203
X4.5094Y-5.2159
X4.5094Y-5.2959
X4.9787Y-2.1667
X4.9787Y-2.2467
X4.9787Y-2.5394
X4.9787Y-2.815
X4.9787Y-3.3872
X4.9787Y-3.4672
X4.9787Y-3.7598
X4.9787Y-4.0354
X4.9787Y-4.6076
X4.9787Y-4.6876
X4.9787Y-4.9803
X4.9787Y-5.2559
X5.1787Y-2.2067
X5.1787Y-2.4994
X5.1787Y-2.5794
X5.1787Y-2.775
X5.1787Y-2.855
X5.1787Y-3.4272
X5.1787Y-3.7198
X5.1787Y-3.7998
X5.1787Y-3.9954
X5.1787Y-4.0754
X5.1787Y-4.6476
X5.1787Y-4.9403
X5.1787Y-5.0203
X5.1787Y-5.2159
X5.1787Y-5.2959
X5.648Y-2.1667
X5.648Y-2.2467
X5.648Y-2.5394
X5.648Y-2.815
X5.648Y-3.3872
X5.648Y-3.4672
X5.648Y-3.7598
X5.648Y-4.0354
X5.648Y-4.6076
X5.648Y-4.6876
X5.648Y-4.9803
X5.648Y-5.2559
X5.848Y-2.2067
X5.848Y-2.4994
X5.848Y-2.5794
X5.848Y-2.775
X5.848Y-2.855
X5.848Y-3.4272
X5.848Y-3.7198
X5.848Y-3.7998
X5.848Y-3.9954
X5.848Y-4.0754
X5.848Y-4.6476
X5.848Y-4.9403
X5.848Y-5.0203
X5.848Y-5.2159
X5.848Y-5.2959
X6.3173Y-2.1667
X6.3173Y-2.2467
X6.3173Y-2.5394
X6.3173Y-2.815
X6.3173Y-3.3872
X6.3173Y-3.4672
X6.3173Y-3.7598
X6.3173Y-4.0354
X6.3173Y-4.6076
X6.3173Y-4.6876
X6.3173Y-4.9803
X6.3173Y-5.2559
X6.5173Y-2.2067
X6.5173Y-2.4994
X6.5173Y-2.5794
X6.5173Y-2.775
X6.5173Y-2.855
X6.5173Y-3.4272
X6.5173Y-3.7198
X6.5173Y-3.7998
X6.5173Y-3.9954
X6.5173Y-4.0754
X6.5173Y-4.6476
X6.5173Y-4.9403
X6.5173Y-5.0203
X6.5173Y-5.2159
X6.5173Y-5.2959
X6.9866Y-2.1667
X6.9866Y-2.2467
X6.9866Y-2.5394
X6.9866Y-2.815
X6.9866Y-3.3872
X6.9866Y-3.4672
X6.9866Y-3.7598
X6.9866Y-4.0354
X6.9866Y-4.6076
X6.9866Y-4.6876
X6.9866Y-4.9803
X6.9866Y-5.2559
X7.1866Y-2.2067
X7.1866Y-2.4994
X7.1866Y-2.5794
X7.1866Y-2.775
X7.1866Y-2.855
X7.1866Y-3.4272
X7.1866Y-3.7198
X7.1866Y-3.7998
X7.1866Y-3.9954
X7.1866Y-4.0754
X7.1866Y-4.6476
X7.1866Y-4.9403
X7.1866Y-5.0203
X7.1866Y-5.2159
X7.1866Y-5.2959
T0
M30
