M48
; DRILL file {KiCad (7.0.0)} date Sun Mar 26 22:08:05 2023
; FORMAT={-:-/ absolute / inch / decimal}
; #@! TF.CreationDate,2023-03-26T22:08:05+02:00
; #@! TF.GenerationSoftware,Kicad,Pcbnew,(7.0.0)
; #@! TF.FileFunction,Plated,1,2,PTH
FMAT,2
INCH
; #@! TA.AperFunction,Plated,PTH,ComponentDrill
T1C0.0315
%
G90
G05
T1
X4.3594Y-2.1817
X4.3594Y-2.2317
X4.3594Y-3.4022
X4.3594Y-3.4522
X4.3594Y-4.6226
X4.3594Y-4.6726
X4.4094Y-2.1817
X4.4094Y-2.2317
X4.4094Y-3.4022
X4.4094Y-3.4522
X4.4094Y-4.6226
X4.4094Y-4.6726
X4.4594Y-2.1817
X4.4594Y-2.2317
X4.4594Y-3.4022
X4.4594Y-3.4522
X4.4594Y-4.6226
X4.4594Y-4.6726
X5.0287Y-2.1817
X5.0287Y-2.2317
X5.0287Y-3.4022
X5.0287Y-3.4522
X5.0287Y-4.6226
X5.0287Y-4.6726
X5.0787Y-2.1817
X5.0787Y-2.2317
X5.0787Y-3.4022
X5.0787Y-3.4522
X5.0787Y-4.6226
X5.0787Y-4.6726
X5.1287Y-2.1817
X5.1287Y-2.2317
X5.1287Y-3.4022
X5.1287Y-3.4522
X5.1287Y-4.6226
X5.1287Y-4.6726
X5.698Y-2.1817
X5.698Y-2.2317
X5.698Y-3.4022
X5.698Y-3.4522
X5.698Y-4.6226
X5.698Y-4.6726
X5.748Y-2.1817
X5.748Y-2.2317
X5.748Y-3.4022
X5.748Y-3.4522
X5.748Y-4.6226
X5.748Y-4.6726
X5.798Y-2.1817
X5.798Y-2.2317
X5.798Y-3.4022
X5.798Y-3.4522
X5.798Y-4.6226
X5.798Y-4.6726
X6.3673Y-2.1817
X6.3673Y-2.2317
X6.3673Y-3.4022
X6.3673Y-3.4522
X6.3673Y-4.6226
X6.3673Y-4.6726
X6.4173Y-2.1817
X6.4173Y-2.2317
X6.4173Y-3.4022
X6.4173Y-3.4522
X6.4173Y-4.6226
X6.4173Y-4.6726
X6.4673Y-2.1817
X6.4673Y-2.2317
X6.4673Y-3.4022
X6.4673Y-3.4522
X6.4673Y-4.6226
X6.4673Y-4.6726
X7.0366Y-2.1817
X7.0366Y-2.2317
X7.0366Y-3.4022
X7.0366Y-3.4522
X7.0366Y-4.6226
X7.0366Y-4.6726
X7.0866Y-2.1817
X7.0866Y-2.2317
X7.0866Y-3.4022
X7.0866Y-3.4522
X7.0866Y-4.6226
X7.0866Y-4.6726
X7.1366Y-2.1817
X7.1366Y-2.2317
X7.1366Y-3.4022
X7.1366Y-3.4522
X7.1366Y-4.6226
X7.1366Y-4.6726
T0
M30
