%TF.GenerationSoftware,KiCad,Pcbnew,(7.0.0)*%
%TF.CreationDate,2023-03-26T22:08:02+02:00*%
%TF.ProjectId,PogoProbe 2030,506f676f-5072-46f6-9265-20323033302e,rev?*%
%TF.SameCoordinates,Original*%
%TF.FileFunction,Copper,L2,Bot*%
%TF.FilePolarity,Positive*%
%FSLAX46Y46*%
G04 Gerber Fmt 4.6, Leading zero omitted, Abs format (unit mm)*
G04 Created by KiCad (PCBNEW (7.0.0)) date 2023-03-26 22:08:02*
%MOMM*%
%LPD*%
G01*
G04 APERTURE LIST*
%TA.AperFunction,ComponentPad*%
%ADD10C,1.100000*%
%TD*%
G04 APERTURE END LIST*
D10*
%TO.P,REF\u002A\u002A,1*%
%TO.N,N/C*%
X181270000Y-118685000D03*
%TO.P,REF\u002A\u002A,2*%
X181270000Y-117415000D03*
%TO.P,REF\u002A\u002A,3*%
X180000000Y-118685000D03*
%TO.P,REF\u002A\u002A,4*%
X180000000Y-117415000D03*
%TO.P,REF\u002A\u002A,5*%
X178730000Y-118685000D03*
%TO.P,REF\u002A\u002A,6*%
X178730000Y-117415000D03*
%TD*%
%TO.P,REF\u002A\u002A,1*%
%TO.N,N/C*%
X181270000Y-56684999D03*
%TO.P,REF\u002A\u002A,2*%
X181270000Y-55414999D03*
%TO.P,REF\u002A\u002A,3*%
X180000000Y-56684999D03*
%TO.P,REF\u002A\u002A,4*%
X180000000Y-55414999D03*
%TO.P,REF\u002A\u002A,5*%
X178730000Y-56684999D03*
%TO.P,REF\u002A\u002A,6*%
X178730000Y-55414999D03*
%TD*%
%TO.P,REF\u002A\u002A,1*%
%TO.N,N/C*%
X181270000Y-87684999D03*
%TO.P,REF\u002A\u002A,2*%
X181270000Y-86414999D03*
%TO.P,REF\u002A\u002A,3*%
X180000000Y-87684999D03*
%TO.P,REF\u002A\u002A,4*%
X180000000Y-86414999D03*
%TO.P,REF\u002A\u002A,5*%
X178730000Y-87684999D03*
%TO.P,REF\u002A\u002A,6*%
X178730000Y-86414999D03*
%TD*%
%TO.P,REF\u002A\u002A,1*%
%TO.N,N/C*%
X164270000Y-118685000D03*
%TO.P,REF\u002A\u002A,2*%
X164270000Y-117415000D03*
%TO.P,REF\u002A\u002A,3*%
X163000000Y-118685000D03*
%TO.P,REF\u002A\u002A,4*%
X163000000Y-117415000D03*
%TO.P,REF\u002A\u002A,5*%
X161730000Y-118685000D03*
%TO.P,REF\u002A\u002A,6*%
X161730000Y-117415000D03*
%TD*%
%TO.P,REF\u002A\u002A,1*%
%TO.N,N/C*%
X164270000Y-56684999D03*
%TO.P,REF\u002A\u002A,2*%
X164270000Y-55414999D03*
%TO.P,REF\u002A\u002A,3*%
X163000000Y-56684999D03*
%TO.P,REF\u002A\u002A,4*%
X163000000Y-55414999D03*
%TO.P,REF\u002A\u002A,5*%
X161730000Y-56684999D03*
%TO.P,REF\u002A\u002A,6*%
X161730000Y-55414999D03*
%TD*%
%TO.P,REF\u002A\u002A,1*%
%TO.N,N/C*%
X164270000Y-87684999D03*
%TO.P,REF\u002A\u002A,2*%
X164270000Y-86414999D03*
%TO.P,REF\u002A\u002A,3*%
X163000000Y-87684999D03*
%TO.P,REF\u002A\u002A,4*%
X163000000Y-86414999D03*
%TO.P,REF\u002A\u002A,5*%
X161730000Y-87684999D03*
%TO.P,REF\u002A\u002A,6*%
X161730000Y-86414999D03*
%TD*%
%TO.P,REF\u002A\u002A,1*%
%TO.N,N/C*%
X147270000Y-118685000D03*
%TO.P,REF\u002A\u002A,2*%
X147270000Y-117415000D03*
%TO.P,REF\u002A\u002A,3*%
X146000000Y-118685000D03*
%TO.P,REF\u002A\u002A,4*%
X146000000Y-117415000D03*
%TO.P,REF\u002A\u002A,5*%
X144730000Y-118685000D03*
%TO.P,REF\u002A\u002A,6*%
X144730000Y-117415000D03*
%TD*%
%TO.P,REF\u002A\u002A,1*%
%TO.N,N/C*%
X147270000Y-56684999D03*
%TO.P,REF\u002A\u002A,2*%
X147270000Y-55414999D03*
%TO.P,REF\u002A\u002A,3*%
X146000000Y-56684999D03*
%TO.P,REF\u002A\u002A,4*%
X146000000Y-55414999D03*
%TO.P,REF\u002A\u002A,5*%
X144730000Y-56684999D03*
%TO.P,REF\u002A\u002A,6*%
X144730000Y-55414999D03*
%TD*%
%TO.P,REF\u002A\u002A,1*%
%TO.N,N/C*%
X147270000Y-87684999D03*
%TO.P,REF\u002A\u002A,2*%
X147270000Y-86414999D03*
%TO.P,REF\u002A\u002A,3*%
X146000000Y-87684999D03*
%TO.P,REF\u002A\u002A,4*%
X146000000Y-86414999D03*
%TO.P,REF\u002A\u002A,5*%
X144730000Y-87684999D03*
%TO.P,REF\u002A\u002A,6*%
X144730000Y-86414999D03*
%TD*%
%TO.P,REF\u002A\u002A,1*%
%TO.N,N/C*%
X130270000Y-118685000D03*
%TO.P,REF\u002A\u002A,2*%
X130270000Y-117415000D03*
%TO.P,REF\u002A\u002A,3*%
X129000000Y-118685000D03*
%TO.P,REF\u002A\u002A,4*%
X129000000Y-117415000D03*
%TO.P,REF\u002A\u002A,5*%
X127730000Y-118685000D03*
%TO.P,REF\u002A\u002A,6*%
X127730000Y-117415000D03*
%TD*%
%TO.P,REF\u002A\u002A,1*%
%TO.N,N/C*%
X130270000Y-56684999D03*
%TO.P,REF\u002A\u002A,2*%
X130270000Y-55414999D03*
%TO.P,REF\u002A\u002A,3*%
X129000000Y-56684999D03*
%TO.P,REF\u002A\u002A,4*%
X129000000Y-55414999D03*
%TO.P,REF\u002A\u002A,5*%
X127730000Y-56684999D03*
%TO.P,REF\u002A\u002A,6*%
X127730000Y-55414999D03*
%TD*%
%TO.P,REF\u002A\u002A,1*%
%TO.N,N/C*%
X130270000Y-87684999D03*
%TO.P,REF\u002A\u002A,2*%
X130270000Y-86414999D03*
%TO.P,REF\u002A\u002A,3*%
X129000000Y-87684999D03*
%TO.P,REF\u002A\u002A,4*%
X129000000Y-86414999D03*
%TO.P,REF\u002A\u002A,5*%
X127730000Y-87684999D03*
%TO.P,REF\u002A\u002A,6*%
X127730000Y-86414999D03*
%TD*%
%TO.P,REF\u002A\u002A,6*%
%TO.N,N/C*%
X110730000Y-55415000D03*
%TO.P,REF\u002A\u002A,5*%
X110730000Y-56685000D03*
%TO.P,REF\u002A\u002A,4*%
X112000000Y-55415000D03*
%TO.P,REF\u002A\u002A,3*%
X112000000Y-56685000D03*
%TO.P,REF\u002A\u002A,2*%
X113270000Y-55415000D03*
%TO.P,REF\u002A\u002A,1*%
X113270000Y-56685000D03*
%TD*%
%TO.P,REF\u002A\u002A,6*%
%TO.N,N/C*%
X110730000Y-86415000D03*
%TO.P,REF\u002A\u002A,5*%
X110730000Y-87685000D03*
%TO.P,REF\u002A\u002A,4*%
X112000000Y-86415000D03*
%TO.P,REF\u002A\u002A,3*%
X112000000Y-87685000D03*
%TO.P,REF\u002A\u002A,2*%
X113270000Y-86415000D03*
%TO.P,REF\u002A\u002A,1*%
X113270000Y-87685000D03*
%TD*%
%TO.P,REF\u002A\u002A,1*%
%TO.N,N/C*%
X113270000Y-118685001D03*
%TO.P,REF\u002A\u002A,2*%
X113270000Y-117415001D03*
%TO.P,REF\u002A\u002A,3*%
X112000000Y-118685001D03*
%TO.P,REF\u002A\u002A,4*%
X112000000Y-117415001D03*
%TO.P,REF\u002A\u002A,5*%
X110730000Y-118685001D03*
%TO.P,REF\u002A\u002A,6*%
X110730000Y-117415001D03*
%TD*%
M02*
